/* XPM */
static char *_633011587059[] = {
/* columns rows colors chars-per-pixel */
"64 64 59 1 ",
"  c #000000",
". c #0D0804",
"X c #160C05",
"o c #1B0F06",
"O c #201207",
"+ c #271709",
"@ c #2D1B0B",
"# c #321E0D",
"$ c #36210F",
"% c #362110",
"& c #3C2512",
"* c #432917",
"= c #492D17",
"- c #462B18",
"; c #492D1A",
": c #4E311A",
"> c #54341D",
", c #58371F",
"< c #5C391E",
"1 c #593720",
"2 c #5D3A22",
"3 c #633E24",
"4 c #674026",
"5 c #6A4226",
"6 c #6D4429",
"7 c #704727",
"8 c #714827",
"9 c #714629",
"0 c #754A2B",
"q c #7A4D2E",
"w c #7E502D",
"e c #7E4F30",
"r c #7E5030",
"t c #81522E",
"y c #88572F",
"u c #845431",
"i c #895732",
"p c #8D5933",
"a c #915C34",
"s c #966036",
"d c #996137",
"f c #976138",
"g c #9C6438",
"h c #A0673A",
"j c #A3693B",
"k c #AC6E3D",
"l c #AE703E",
"z c #B1723F",
"x c #AA6D40",
"c c #AD7042",
"v c #B37442",
"b c #B87743",
"n c #BA7947",
"m c #BE7B49",
"M c #C37E47",
"N c #C17E4B",
"B c #C6814D",
"V c #CA844E",
"C c None",
/* pixels */
"CCCCCCCCCCCCCCCCCCCCCCCCCCCCCCCCCCCCCCCCCCCCCCCCCCCCCCCCCCCCCCCC",
"wqlMVVVVVVVVVVVVVVVVVVVVVVVVVVVVVVVVVVVVVVVVVVVVVVVVVVVVVVVVMvtq",
"zp3gzzzvvzzzvlvzvzzvvzvlzcvzvzzvvzvlzcvzvzzvvzvzvzvzzzzzvzzzk4yk",
"vmi4jzlzs*tzlllllkkzklklllllllklklklllllzkkkklklkllkly-pzlzj4tzj",
"vBzi3jzz> Ojllllzkzkzkzkllllllzkzkkzllllllllllllllllk% :zkj5tzjg",
"vBlzi4jzy&0lllllkkkzlllklllllkkkllzklllllkllllllllllzq$yzk5tkzjg",
"bBkzzi4gzjlkkkkkkkkkkkkkkkkkkkkkkkkkkkkkkkkkkklkkkkklljzk5tzzljg",
"bBcjgzi4gjdgdggggdgggfgffgdgfggggdggfgfdgfgdgdffdgfgggjj5tzhhzjg",
"vVj= pzy5q8888080quttututtttteuetttuettttteuuww0808880q5tzao&hjg",
"vVs  8zj0tsssaagp2;-******-***********--*****;2udaasasi4kn0  akg",
"vBlt5kjgwhzzlzzmNf1333342160333343332160333331pmbzzlzvk5kmj7wzhg",
"vBlzzzhg0gzs#5lknNf3qrqr03iaeeeeqqqe06ppqqeq4pmnkzs&4kk9cmkzzzhg",
"vBclllhgwgz4  klkbNa20qe03up0eqqqq0e64iiqqe2pmnklz5  gk5lnklllhg",
"bBlllzjgqjzs&0lllknNa30e03upqqqqqqeq05iiqq3imnkklzg*7lj5lnklllhh",
"vBllllhg0gzlllllllxnNg3e03uaqq0qqqqq05ipq3imnklllllllzk5cmklllhh",
"vBlllzjdwdllllllkvxxnNa303ua0qeqeqqq63ii3pmnkxllllllkkd7kmkllzjg",
"vBlllljgqahxckkzllllkbNa33iaqe0eqqqq95u5imnklkllllllkag5vmkllzjg",
"vBkllljgt3hgjzllzklllknNa2ua0qqqqqqq944pmbkllllllllkdhq4vnkllljg",
"vBcllljgq;0hgkzzlllllllbNg3ieqqqqqqq92pmnllklllllljdhw;5vnxlkzhg",
"vVcllljh0%*0ggjzlkllllcknNa30eqqqqee2amblllllllklkdgq;$4vnlllzhh",
"vVlllzjgt2%-0hgxllllllllkbNa30qqqqq2pmnkllllllllksgw=#39vbkllljg",
"vNlllljgtu3#-0hajzlzlllllkbNa30qqq2pmnkclllllllksgw;@3q9bmkllzjg",
"bNklkzjg03u3#*0hgjzlllllllkbNg3te3amblllllllllkdgw;@3qq9vnklkzjg",
"vVlllljht00t3@;0hgjcklllllccnNa32pmnklllklllkksgw-#4wq09vnkllzjg",
"vNcvzzggtqtqt1#;0hakzzzlllllkbMaimnklllllllljdgw;+9iqqq9vnlllljg",
"vVkvkljgt30tu33%*0jajzzzlklllzcjmnkllllllllkdgw;@2au0q06vmkllljg",
"bNkkzzjgtqqt33u0@*qhgjzzllllckjnnxczllllllkfgw;#>0puqqq9vnxllljg",
"bNkvzzjgq3t0q3ua3#*0gdjzllkzxjMMccccllkllkdgw;@366au0e09vmcllljg",
"vNlllljgt3qq03tat3#-qggjzkckkMnkllllllllkdgw;@2e66auqqq9vnkllljg",
"nNzzlzjgtqe003uaqt3#-0jajzkxnbkzlklllllkfgw;@2rq66pu0q09vnlllljg",
"bNvclljge0ee03uaqqt3#-0ggkknnkzkllllllksgw-@3ree66auqq00vnkllljg",
"vNcclljg00eq03uaqq0q3#*0gkMbxckzlllllkddq;@2ee0e66au0qq6vnlllzjg",
"nNllllhhq0eq03ta0qqqw4*>amnklllkllllkdha1*3qqq0e56auqe00vnkllljg",
"bNlllljgq0qeq3taeqqqqq2pmmkllllllklkdgkng20qqqeq56au0e06vnkllljg",
"vNlllljhq0qq03ta0eqqq3pmnklllllllzkddkkvNf30e0eq66au0ee6vmxllljg",
"nNlllljgq0qe03ta0qqq3pmmkkllkllllkahkzllvNd30e0e66au0e06vmxllljg",
"bNvclzjgq6ee03uaeqq2pmnkzlllllllkahkkllkkvNf30qq66auqqq6vnkllljg",
"vNzclzhhe0e003ta0e3pmmklllzklllkggkklllzlkvBf30q66auqqe6vnkllzjg",
"nNllxzjge0e0q3uaq3pmmkllllllllkdhkzzlzkzllkbNf3q66au0q06vnlllljg",
"bMklkvhfe6ee03up2pmnkklllllklkdgjjjzkklllllkvNf356puqqq6vmkllzjg",
"bNlllljgq0qqq3e5pmnlllklllllkdgq9hdjzkzkzlllkvNf29pu0eq9vnkllljg",
"nNlzlljgq0qqq33pmmkllllllllkdgw*-0hdjzlllklllkvBf2pi0e06vnkllljg",
"bNvclzjgq0qq02pmmllllllllzxfgw-##*0hdjvlzklllllvNf5reqq6vmxllljg",
"vNcclzjgq0qq3pNnxcllklllckfgw;@34#*0hdhzlllllllkvNf20eq9vmlllljg",
"MNkllzjgq0q3pmnkllllclllcfge;@2qq4#*0hsjzkzkzlllcvNf3qq9vnkllljg",
"vMzzlljgq03pmnlllllllllkfgr:@2eqqu5#*0jsjvkzzkklclvNf299vnlllljg",
"vNzklzjgq2pmnllllllllzkfge;@2eqqqqq3#*0jdkkklzlzlllvmg36vnlllljg",
"MNklkzjg0iNnlclklllllkggq-@3eqqqqqqe3@-0hajzlklkllllbmf4cnkllzjg",
"vNcvllhg0jMkllllllllkfgw;+5aqqqqqqqq01%-qgfjlllllllllbl5cmkllljg",
"vNcclzjgqhzlzzllllllggw;@:ua0qqqqqqq666%&0jdjzllllllzzj7cmkllljg",
"MNkzllhgqhzk8alllllfgw;#>4upqq0qqqqq95pq#*0gfjlllzj0pzj7cnlllljg",
"vMzklzjgqaz8 ojlllfgw;@204uaqqqqqqqe65ip4$*qgfjvlz8  gl5cnkllljg",
"vNxcvcjg0hzt :kllfgw;@2r04uaqqqqqqqq95iiw4#*0gfjlzy &kk5kmkzlljg",
"MNcgazkaqhzlhklkggw:@2qq03uaqqqqqq0e95ii0w4$-qggjllgjlj5cmksgzhh",
"vNj+ tjhqhzzzzllgw-@2rqq03uaqqqqeeee94piqwr4%&0jjllvvzk7xNy .skd",
"vNg. tzh339775774222544343564445344244554544222487755852gbw  skd",
"vBzsylk5thhhhhxgjkkjxxkkxxkjjkjkxxkxjxxxkjkxxxkgjgjgjggy4jzpszjg",
"vBlzzk5tzMNMNmmmmmmmmmNnmmmmmmNMmmmmmmmmMnmmmmmmNmNmNNBbi3jzzzjg",
"bBllj5tzh<ylkkxkkkklkkkkkkkklllkxkkkkkkkkkklkkkklllllp<szy3hzlhg",
"bmzk5tlz> #jzlzxllllllllllllllllccclllllllllkllllllll& >vzi4hzkg",
"cnj5tllzw 3klllklllllllzllllllllllllllllzllllllllllll5 qzlzi4hzk",
"zl5yzzllzhlzzlzzlllllzlzllllllllllllllllzzzllzlzllllllgzlzzzy3kz",
"h0wljhhjjjjhjhhjjjjjgjjjgjgjjhhjjhjjgjjjjgjjjggjjjgjjjjhjhhjzy5g",
"7wzjgggggggggggggggggggggggggggggggggggggggggggggggggggggggdkzy5"
};
