/* XPM */
static char *_633011600322[] = {
/* columns rows colors chars-per-pixel */
"64 64 70 1 ",
"  c #00BCFF",
". c #14BDFF",
"X c #1EBDFF",
"o c #25BEFF",
"O c #2ABFFF",
"+ c #32BFFE",
"@ c #00C1FF",
"# c #14C4FF",
"$ c #1BC1FF",
"% c #25C1FF",
"& c #2BC2FF",
"* c #27C8FF",
"= c #2BCBFF",
"- c #35C3FF",
"; c #3BC4FF",
": c #35CAFF",
"> c #3BCCFF",
", c #3CD2FF",
"< c #43C6FF",
"1 c #4BC7FF",
"2 c #45C9FF",
"3 c #4CC9FF",
"4 c #52C7FF",
"5 c #54CCFF",
"6 c #5ACDFF",
"7 c #42D1FF",
"8 c #56D5FF",
"9 c #5CD3FF",
"0 c #5ED8FF",
"q c #61CFFF",
"w c #6BCEFE",
"e c #64D1FF",
"r c #6CD3FF",
"t c #62DBFF",
"y c #69DAFF",
"u c #74D6FF",
"i c #79D7FF",
"p c #77DBFF",
"a c #7BD9FF",
"s c #64E5FF",
"d c #68E6FF",
"f c #7DE2FF",
"g c #83D7FF",
"h c #89D3FF",
"j c #84DAFF",
"k c #8ADCFF",
"l c #94DEFF",
"z c #9BDFFF",
"x c #80E6FF",
"c c #93E0FF",
"v c #9DE1FF",
"b c #A4E3FF",
"n c #ABE5FF",
"m c #B2E6FF",
"M c #B9E7FF",
"N c #B3E9FF",
"B c #BCEAFF",
"V c #C3ECFF",
"C c #CCEDFF",
"Z c #D1EFFF",
"A c #CEF1FF",
"S c #D5F1FF",
"D c #DAF3FF",
"F c #E4F6FF",
"G c #EAF7FF",
"H c #E6F8FF",
"J c #ECF8FF",
"K c #F5FAFF",
"L c #FDFEFF",
"P c None",
/* pixels */
"PPPPPPPPPPPPPPPPPPPPPPPPPPPPPPPPP6PPPPPPPPPPPPPPPPPPPPPPPPPPPPPP",
"PPPPPPPPPPPPPPPPPPPPPPPPPPPPPPPPut;PPPPPPPPPPPPPPPPPPPPPPPPPPPPP",
"PPPPPPPPPPPPPPPPPPPPPPPPPPPPPPPip62:<PPPPPPPPPPPPPPPPPPPPPPPPPPP",
"PPPPPPPPPPPPPPPPPPPPPPPPPPPPPrfar65->;PPPPPPPPPPPPPPPPPPPPPPPPPP",
"PPPPPPPPPPPPPPPPPPPPPPPPPPPPufiae65;->;PPPPPPPPPPPPPPPPPPPPPPPPP",
"PPPPPPPPPPPPPPPPPPPPPPPPPPPufuiiq56<-;>;PPPPPPPPPPPPPPPPPPPPPPPP",
"PPPPPPPPPPPPPPPPPPPPPPPPPPpaiiiu6663-;--><PPPPPPPPPPPPPPPPPPPPPP",
"PPPPPPPPPPPPPPPPPPPPPPPPufaiiuaj5665;--;-,;PPPPPPPPPPPPPPPPPPPPP",
"PPPPPPPPPPPPPPPPPPPPPPPufiuiiiaj5666<-;-;;>;PPPPPPPPPPPPPPPPPPPP",
"PPPPPPPPPPPPPPPPPPPPPPupauaiiulu56563-;-----;PPPPPPPPPPPPPPPPPPP",
"PPPPPPPPPPPPPPPPPPPPPraaiiuaiune55666;---;;--;PPPPPPPPPPPPPPPPPP",
"PPPPPPPPPPPPPPPPPPPPP5fuauiiujbq66666<-;---;;-PPPPPPPPPPPPPPPPPP",
"PPPPPPPPPPPPPPPPPPPPP5ykuaaiybb;666663-;;--;-&PPPPPPPPPPPPPPPPPP",
"PPPPPPPPPPPPPPPPPPPPP68klriiuml<666666;-;---*&PPPPPPPPPPPPPPPPPP",
"PPPPPPPPPPPPPPPPPPPPP695nlraaVe66665662---;&*OPPPPPPPPPPPPPPPPPP",
"PPPPPPPPPPPPPPPPPPPPPP05iAkrvZ266666663--;-o=OPPPPPPPPPPPPPPPPPP",
"PPPPPPPPPPPPPPPPPPPPPP069nDrBm296666665;;-Oo=OPPPPPPPPPPPPPPPPPP",
"PPPPPPPPPPPPPPPPPPPPPP06urSSDj-53566666<-&oo=OPPPPPPPPPPPPPPPPPP",
"PPPPPPPPPPPPPPPPPPPPPP0qauaHLmzguw965563&OoO=PPPPPPPPPPPPPPPPPPP",
"PPPPPPPPPPPPPPPPPPPPPP9riirnLDCBba622<<<Ooo&=PPPPPPPPPPPPPPPPPPP",
"PPPPPPPPPPPPPPPPPPPPPP6uairnC    o&---;3ooOo=PPPPPPPPPPPPPPPPPPP",
"PPPPPPPPPPPP1;;;;;<<<<eaiirbC;<<;;;;--53ooOo&PPPPPPPPPPPPPPPPPPP",
"PPPPPPPPPPPrd7,>>>>>>;rauarbV--;;--;-<63ooooOPPPPPPPPPPPPPPPPPPP",
"PPPPPPPPPPPur5<-;;---;uuiurvV-----;-;561oOO%&PPPPPruy;PPPPPPPPPP",
"PPPPPPPPPPPxr56<---;-;uauirvV--;-;;-1663XoO&oPPPupfu57PPPPPPPPPP",
"PPPPPPPPPPufr6663-----riuarzV;-----;6661XOOX;ruffuir5<;PPPPPPPPP",
"PPPPPPPPPPaiae5663-;;-waiiulB;-;;;-56661XO.<uffiaia662:;PPPPPPPP",
"PPPPPPPPPufukr56665-;OqaiaukM<&--+<6656<X+<5uuiiuja563->;PPPPPPP",
"PPPPPPPPPufuji566663;Xqauiujn1&;-;5656666ui3rjiiice563--,PPPPPPP",
"PPPPPPPPPxiiac6656663.qaiiuun1---366eruaaie33aiukl3665--;;PPPPPP",
"PPPPPwurupuuun6666652&6auarrn1--<66qiaiuau65%raumr5665;;->;PPPPP",
"PPPP;spfpiuiube5565-226iuaren1&;5666iiiujr55-;ubb36665;---7PPPPP",
"PPPP-5eauauiuju3ir--256aiueqb4&<6565jauac565;-2Nr<6666;--;>PPPPP",
"PPPP:55ijuiauubbg&--15euiu66b4-66665kcrbu365;-&ezu5666;;--OPPPPP",
"PPP;:565ljrkk3nl ;--35euir56b5266565jmcv3665;--;zae666<-&=oPPPPP",
"PPP>-365ebakb2a3-;;-36eua666n656666raBC95666;;;; -5<23<Oo=+PPPPP",
"PP;>-3663inbbruao;--366iu66ebq5666eieBFiq666;-;-;;&--<-oooPPPPPP",
"PP;--165e-cJaiuv5-;-566ar56rnw5666uiubura666<;OO--;-<5+o&-PPPPPP",
"P;>--1665rcVvuukk ;;566ue5eubr565qiukb%&o;33;Oo&;--<63oo*&PPPPPP",
"P->;-<66qu65muiub6o;566r55uuvr566eiukb <;--<+oo-;-<56<oo=PPPPPPP",
"PP:--;652-&%vluulgX;665e56uuvq565ruucuo;--53ooO;-<565;oO&PPPPPPP",
"PPO%O;3---;Xuvuaun1;66666qaulq566uiuz1--;56;oO&-<6665Oo*OPPPPPPP",
"PPP*oo<2;-;;&zuirjg$66656uaukq665uael<&<566OoO-256665oO*+PPPPPPP",
"PPP-*o-65<--&rkqaul456666uiukq565uruu&<5665oo&;66666;oO&PPPPPPPP",
"PPPP&Oo<6652&1k6urkj5666riuuaq636i5jw-6656;oo-666565-ooOPPPPPPPP",
"PPPPO*o+66655%aa5rrc6665riiuu65-ee5je56566+oo165665;Oo*OPPPPPPPP",
"PPPPP&oo<666665p9ruju266uiirre1-65ik56665;OoO56665;-&o:PPPPPPPPP",
"PPPPPO*o+56662rVSDDDVj:eaiaq62.;5eaa5565;-Oo<6665;;;oo&PPPPPPPPP",
"PPPPPP=oO;163bGLLLLLLKM3aue9llg83ujr663;;+oo5665;-5;o*OPPPPPPPPP",
"PPPPPP+*OO;#mLLLLLLLLLLSaaVJKLKJSjr663-<5oo-565-;55OO*+PPPPPPPPP",
"PPPPPPPOo+#bLLLLKKKKLLLLSFLLLLLLLKl33-36<oX<e5;;563oO*PPPPPPPPPP",
"PPPPPPP+: wKLKKKKKKKKKKLLLLLLKLLLLKu$366-oo56-;565;ooOPPPPPPPPPP",
"PPPPPPPP+ CLLKKKKKKKKKKKLLKKKKKKKLLS265;OoO5;;566<&O&OPPPPPPPPPP",
"PPPPPPPP yLLKKKKKKKKKKKKLKKKKKKKKKLLz:<-oo;3-595-%..:PPPPPPPPPPP",
"PPPPPPPPPmLKKKKKLLLLLKKKKKKKKKKKKKKLS%<++O3<5523quq;@PPPPPPPPPPP",
"PPPPPPPPPLLKKKKKLKKKLKKKKKKKKKKKKKKLK-   ;5556bHLLLKnPPPPPPPPPPP",
"PPPPPPPPPLLKKGHKDSSSDKKKLKKJJGJJKKKKKVBmh*55rDLLLLLLLLPPPPPPPPPP",
"PPPPPPPPPKLKDSHDZSSSSSJDGJFDSSSSDFKKLLLLLZu3FLLLLLLLLLLPPPPPPPPP",
"PPPPPPPLLLKDSDFSDSSSSSDDFLKJDSDSZSDKKLLLLLJZLLLKKKKKLLLLPPPPPPPP",
"PPPPPPLLLKDZSDSSSSSSSSSFHDDFJDSSDSSDKKKKLLLLLKKKKKKKKKLLPPPPPPPP",
"PPPPPLLLLGSSSSSSSSSSSSSFSSSZDFZSZDDZGKKKKKLLKKKKKKJKKKKLLLLLLPPP",
"PPLLLLLLKDSSSSSSSSSSSSSDSSSSSDSSDZZZDKKKKKKKKKFFDSDDFJKKLLLLLLPP",
"PLLLLLKKKDSSSSSSSSSSSDZSSSSSZSZZZDZDZDDDFJKKGDZZDZSZZDFKLLLLLLLP",
"PLLLLLKJDDDDDDDDDDDSDDDDDDDDDDDDDDDDDDDZZDFGDSDDDDDDDDSGKKKKLLLL"
};
