/* XPM */
static char *_35d8eb1d7964774d4f14628d58026ab25A7MdZd4uV9smN4[] = {
/* columns rows colors chars-per-pixel */
"64 64 169 2 ",
"   c None",
".  c #36766F",
"X  c #547F7D",
"o  c #FF1B1D",
"O  c #FF1833",
"+  c #FF2525",
"@  c #FD3A39",
"#  c #FF2F42",
"$  c #FF3745",
"%  c #FF3A46",
"&  c #FD3F4D",
"*  c #AE7C7F",
"=  c #D05855",
"-  c #FF4747",
";  c #FF4947",
":  c #FF4748",
">  c #FF4A4A",
",  c #F34949",
"<  c #FF5C4A",
"1  c #FF4A5C",
"2  c #E25E5A",
"3  c #FF5454",
"4  c #FE5C5B",
"5  c #F45252",
"6  c #FE6C4E",
"7  c #FE6050",
"8  c #FE615E",
"9  c #FE705D",
"0  c #C25B60",
"q  c #FF5563",
"w  c #FF5D66",
"e  c #FF6666",
"r  c #FF6A65",
"t  c #FF6A6A",
"y  c #FE7365",
"u  c #FE7A63",
"i  c #F67E72",
"p  c #00817F",
"a  c #55857E",
"s  c #768C7E",
"d  c #FE8150",
"f  c #FE8F55",
"g  c #FE8A5C",
"h  c #FE9B59",
"j  c #FEAC5C",
"k  c #FEA55C",
"l  c #FEB55D",
"z  c #FEBA5F",
"x  c #FE8264",
"c  c #FE8B63",
"v  c #FF8C6B",
"b  c #FE9562",
"n  c #FE9C61",
"m  c #FF8473",
"M  c #E39275",
"N  c #FF9877",
"B  c #FEA563",
"V  c #FEAA62",
"C  c #FEA56B",
"Z  c #FEB660",
"A  c #FEBC61",
"S  c #FEBE6F",
"D  c #FEA575",
"F  c #FEBC74",
"G  c #FFB776",
"H  c #FEC67B",
"J  c #FFC97C",
"K  c #009696",
"L  c #189194",
"P  c #3D8985",
"I  c #3D9796",
"U  c #4B8887",
"Y  c #408788",
"T  c #458C8C",
"R  c #498D8D",
"E  c #588886",
"W  c #588F8E",
"Q  c #598682",
"!  c #4D979A",
"~  c #599494",
"^  c #529599",
"/  c #5A9699",
"(  c #559899",
")  c #7C958A",
"_  c #629797",
"`  c #6B9797",
"'  c #659999",
"]  c #6B9B9B",
"[  c #6B9997",
"{  c #729797",
"}  c #739F9D",
"|  c #7B9E98",
" . c #7EA19D",
".. c #6CA1A1",
"X. c #68A5A9",
"o. c #77A6A6",
"O. c #908D8D",
"+. c #8B9C88",
"@. c #839393",
"#. c #A58787",
"$. c #A79E86",
"%. c #8FA79E",
"&. c #8EA392",
"*. c #9DA898",
"=. c #A6A68D",
"-. c #A9AB93",
";. c #80A7A7",
":. c #85AAAC",
">. c #8DACAC",
",. c #9CA9A1",
"<. c #8DB7BB",
"1. c #B7A8A9",
"2. c #A5BCBB",
"3. c #C58787",
"4. c #DD9C9C",
"5. c #C2B087",
"6. c #C4B38F",
"7. c #DCBB87",
"8. c #C0B699",
"9. c #C9B792",
"0. c #FCAD83",
"q. c #E2BE8A",
"w. c #FCB886",
"e. c #F2ABAB",
"r. c #F8BDBD",
"t. c #B8C8BF",
"y. c #E1C08E",
"u. c #FECB84",
"i. c #FECD8D",
"p. c #FAC78D",
"a. c #FFD08C",
"s. c #E9C898",
"d. c #F4C992",
"f. c #FECE91",
"g. c #F2CC98",
"h. c #FFD293",
"j. c #FFDC95",
"k. c #FED29B",
"l. c #FFDD98",
"z. c #D9CEB9",
"x. c #FED6A4",
"c. c #FED6A9",
"v. c #FFD9AD",
"b. c #FFD9A4",
"n. c #E2D8BB",
"m. c #FEDBB4",
"M. c #FCDFBD",
"N. c #FFE6B6",
"B. c #92C2C2",
"V. c #AAC5C5",
"C. c #A0C2C2",
"Z. c #B9D0D0",
"A. c #BBD7DB",
"S. c #C3D2D2",
"D. c #CAD8DA",
"F. c #EADECD",
"G. c #FEE3C6",
"H. c #FFEFC2",
"J. c #FDE5CA",
"K. c #FEEDDC",
"L. c #FEEAD5",
"P. c #D8E1E1",
"I. c #EBEBEB",
"U. c #E2E2E2",
"Y. c #FFF1E3",
"T. c #FEF4EA",
"R. c #F0F6F6",
"E. c #FFFAF4",
"W. c #FEFEFE",
/* pixels */
"                                                                                                                                ",
"                                                                                                                                ",
"                                                                                                                                ",
"                                                                                                                                ",
"                                                                                                                                ",
"                                                                                                                                ",
"                                                                                                                                ",
"                                                                                                                                ",
"                                                                                                                                ",
"                                                                                                                                ",
"                                                                                                                                ",
"                                                                                                                                ",
"                                                                                                                                ",
"                                                                                                                                ",
"                                                                                                                                ",
"                                                                                                                                ",
"                                                                                                                                ",
"                                                                                                                                ",
"                                                                                                                                ",
"                                                                                                                                ",
"                                                                                                                                ",
"                                                                                                                                ",
"                                                                                                                                ",
"                                                                                                                                ",
"                                                            : : ; :                                                             ",
"                                                        : > > : : > -                                                           ",
"                                                      ; > : : - : ; : :                                                         ",
"                                                  : : > - ; - - : ; ; > ;                                                       ",
"                          - - ; : > > > > > > > > > : ; - - - : : - : ; :                                                       ",
"                      ; > : - - : : - - : : : - : : : - : - ; - - ; ; ; > :                                                     ",
"                  : > : : : ; - ; ; - ; : ; - - : - - - - ; - : - : : ; : :                                                     ",
"                - > - - : - - - - : - : : ; - : ; ; : ; - : - - - - : : : >                                                     ",
"      > :       : 3 4 4 4 4 3 3 ; - - - - : - ; - ; - - - - - - ; - ; - - > :                                                   ",
"      : > -   3 e e e e e r t e e 4 : - - - ; : ; ; : : : : - ; - : : - : : :                                                   ",
"      : > - 3 t e e e e e e e e e e e 4 : ; - $ - $ - - - - - : - ; - - ; > :                                                   ",
"      : > > e e e e e e e e e e e e e t 8 % < h k f : - ; ; - : : - : - ; > :                                                   ",
"        : w r e e e e e e e e e e e e r w 7 j A Z A h - - : ; - - - - - - - :                                                   ",
"        > r r e e e e e e e e e e e e e e r V z l Z Z 6 $ ; : - : ; : : - - :                                                   ",
"    : > 3 r e e e e e e e e e e e e e e e e r c V Z A d $ - - - - - - - ; ; >                                                   ",
"  : > - w e e r e e e e e t e e e e e e e e e w e y x 9 3 3 > - - ; - ; : : >                                                   ",
"  > - : e e e e e e e e e e e e e e e w c b w e r e w e e t e e : - - - : : >                                                   ",
"  > - 3 e e e e e e e r e e e e e e e w B A B u w e r e e e e e 3 - : - : : >                                                   ",
"      t t e e e e e e e e e e e e e e r V l Z A b r w e e e e e 3 - : : : > >                                                   ",
"      r t e e e e e e e e e e e e r w u Z H p.i.u.G h r e e t e - ; : - @ + ;                                                   ",
"      e t e e e e e e e e e e e e e w c H f.i.i.f.f.u.g : 3 3 > - ; - , 3.e.3                                                   ",
"      e t t e e r e e e e e e e e t w C u.c.G.i.i.p.j.v O - : : - - 5 @.K B.r.                                                  ",
"      t e e e e e e e e e e e e e e 9 F u.c.T.u.c.G.H M 0 = : , - - O.( { R S.                                                  ",
"      t e e e r e e e e e e e e r w x u.f.f.Y.k.T.m.u.+.K Y = o @ #.! _ ] R C.R.                                                ",
"      t e e e e e r e e e e e e e w B a.f.i.K.T.J.J d.s X a ,.4.1.I ] ' ] _ ..P.                                                ",
"      t e e e e e e e e e e e r e r F f.h.H K.T.u.h.7.Q . >.M.n.A.W ` ' ' ] R S.                                                ",
"      t e e e e e e e e e e e e w c u.f.f.i.c.k.i.f.9.P E F.i.h.z.( ' [ ' ] P Z.                                                ",
"      t e e e e e e e e e r r e r V i.f.i.f.i.i.f.f.=.! ' 8.i.h.s..._ [ ' ..R V.                                                ",
"      t e e e e e e e e e e x B l S f.f.i.f.f.f.f.d.) / ' ` d.a.g.| / ] _ ] ~ >.W.W.W.W.W.                                      ",
"      t t e e e e e e e e t e r k H f.i.f.f.i.f.h.q.U ' _ | d.a.g.,.^ ] ' ] ~ o.W.W.W.W.W.                                      ",
"      t t e e t e e e e e e r w x u.f.i.f.f.i.f.i.5.D.2.T } d.i.h.,.^ ` ' ] ~ o.W.W.W.W.                                        ",
"        t t e e e e e e e e e w u i.f.f.i.i.f.f.i.$.<.} S.S.7.a.b.V.! ] ' ] ~ >.W.W.W.I.                                        ",
"        e t e e e e e e e e r w v i.f.u.k.x.i.h.p.t * L :.X.-.l.x.2.~ o.' ..T V.W.I.U.                                          ",
"          t e e e e e e e e r q N a.u.k.E.K.u.h.0.1 i *.&.6.s.d.        ' ..X.D.                                                ",
"            t t e t e e e e r q N a.c.T.J.L.h.a.m q N j.h.l.h.                                                                  ",
"              t t t e e e e e w G i.m.m.H Y.N.D q e w.h.f.i.                                                                    ",
"                  e t t t t t t B a.l.j.j.H.v.                                                                                  ",
"                      e e e r         f.f.                                                                                      ",
"                                                                                                                                ",
"                                                                                                                                "
};
