/* XPM */
static char *_633011652841[] = {
/* columns rows colors chars-per-pixel */
"64 64 155 2 ",
"   c black",
".  c #160000",
"X  c #202527",
"o  c #23292C",
"O  c #433D40",
"+  c #344253",
"@  c #525556",
"#  c #5E676B",
"$  c #586871",
"%  c #526371",
"&  c #59717A",
"*  c gray39",
"=  c #6E797F",
"-  c #777777",
";  c #B90500",
":  c #BE2400",
">  c #BE2B00",
",  c #C51400",
"<  c #C02700",
"1  c #CE2800",
"2  c #C43300",
"3  c #C73F00",
"4  c #CE3D00",
"5  c #DD3200",
"6  c #E63900",
"7  c #DF4A00",
"8  c #D14A06",
"9  c #E14000",
"0  c #EC4600",
"q  c #E74E00",
"w  c #F35100",
"e  c #C64C24",
"r  c #CD5127",
"t  c #CA512B",
"y  c #D35428",
"u  c #C35A3D",
"i  c #D65F3F",
"p  c #D95B35",
"a  c #E35D33",
"s  c #DF613F",
"d  c #E3623A",
"f  c #BF5E49",
"g  c #807F7F",
"h  c #BB7A77",
"j  c #D86143",
"k  c #D96648",
"l  c #D26143",
"z  c #EC7254",
"x  c #C47066",
"c  c #C2756C",
"v  c #7B807E",
"b  c #F08674",
"n  c #708493",
"m  c #758EA2",
"M  c #868383",
"N  c #85898A",
"B  c #8A8A8B",
"V  c #808E95",
"C  c #929191",
"Z  c #9A9A9A",
"A  c #8A98A1",
"S  c #919CA2",
"D  c #91A2AB",
"F  c #8CA6BB",
"G  c #9AABB5",
"H  c gray63",
"J  c #AAAAAB",
"K  c #A2B1BA",
"L  c #B6BABE",
"P  c #B6B4B2",
"I  c #DC8580",
"U  c #D3968B",
"Y  c #D39D95",
"T  c #D1A8A5",
"R  c #CCB4B6",
"E  c #FBB3A5",
"W  c #91B0C8",
"Q  c #9DB4C5",
"!  c #A8BBC6",
"~  c #B4BEC4",
"^  c #FFB5D7",
"/  c #AFC2CE",
"(  c #B3C5CF",
")  c #B7CBD7",
"_  c #A7C7E0",
"`  c #A6CCEA",
"'  c #ABCFEB",
"]  c #AED0EC",
"[  c #BED4E0",
"{  c #B3D3ED",
"}  c #B9D6EE",
"|  c #BDD8EF",
" . c #AED4F2",
".. c #B3D6F2",
"X. c #B6D9F4",
"o. c #BBDAF2",
"O. c #B7DCFA",
"+. c #B9DEFB",
"@. c #BEE2FE",
"#. c gray77",
"$. c #CDCDCD",
"%. c #D8C3CE",
"&. c #D4CCCE",
"*. c #D3CCD6",
"=. c #CBD1D3",
"-. c #DDDDDD",
";. c #D6D3D7",
":. c #E8CCC6",
">. c #E2C6C5",
",. c #FFD3CC",
"<. c #FFE4DE",
"1. c #C4DAE7",
"2. c #C7DDEA",
"3. c #C1D5E2",
"4. c #C3DEF2",
"5. c #FFC6E2",
"6. c #F8CCE6",
"7. c #F7D5E9",
"8. c #DCE6EC",
"9. c #C5E1F5",
"0. c #CCE2F4",
"q. c #C5E6FF",
"w. c #CAE6F8",
"e. c #C5EAFF",
"r. c #CDE9FC",
"t. c #D4E5F3",
"y. c #D8E7F4",
"u. c #D3EAF6",
"i. c #DCEAF6",
"p. c #D4EDFD",
"a. c #DCEDFA",
"s. c #CFF2FF",
"d. c #D6F0FF",
"f. c #DAF2FF",
"g. c #DEF9FF",
"h. c #E4E4E4",
"j. c #E3EAE7",
"k. c #EBEBEB",
"l. c #FFE6E2",
"z. c #FAEDEA",
"x. c #E2ECF5",
"c. c #E2EDF8",
"v. c #FFE5F2",
"b. c #E3F5FF",
"n. c #EAF5FD",
"m. c #E1FAFF",
"M. c #ECFBFF",
"N. c #ECF6F5",
"B. c #F6F5F5",
"V. c #F1F6FB",
"C. c #FFF6FB",
"Z. c #F4FBFF",
"A. c #FFFFFF",
"S. c #FCF3F0",
"D. c None",
/* pixels */
"D.D.D.D.D.D.D.D.D.D.D.D.D.D.D.D.D.D.D.D.D.D.D.D.D.D.D.D.D.A.A.A.A.A.A.A.D.D.D.D.D.D.D.D.D.D.D.D.D.D.D.D.D.D.D.D.D.D.D.D.D.D.D.D.",
"D.D.D.D.D.D.D.D.D.D.D.D.D.D.D.D.D.D.D.D.D.D.D.D.D.D.A.A.A.A.A.A.A.A.A.A.A.A.A.D.D.D.D.D.D.D.D.D.D.D.D.D.D.D.D.D.D.D.D.D.D.D.D.D.",
"D.D.D.D.D.D.D.D.D.D.D.D.D.D.D.D.D.D.D.D.D.D.D.D.A.A.A.A.A.A.A.A.A.A.A.A.A.A.A.A.A.D.D.D.D.D.D.D.D.D.D.D.D.D.D.D.D.D.D.D.D.D.D.D.",
"D.D.D.D.D.D.D.D.D.D.D.D.D.D.D.D.D.D.D.D.D.D.D.A.A.A.A.A.A.A.A.A.A.A.A.A.A.A.A.A.A.A.D.D.D.D.D.D.D.D.D.D.D.D.D.D.D.D.D.D.D.D.D.D.",
"D.D.D.D.D.D.D.D.D.D.D.D.D.D.D.D.D.D.D.D.D.D.A.A.A.A.A.A.A.A.A.A.A.A.A.A.A.A.A.A.A.A.A.D.D.D.D.D.D.D.D.D.D.D.D.D.D.D.D.D.D.D.D.D.",
"D.D.D.D.D.D.D.D.D.D.D.D.D.D.D.D.D.D.D.D.D.A.A.A.A.A.A.A.A.A.A.A.A.A.A.A.A.A.A.A.A.A.A.A.D.D.D.D.D.D.D.D.D.D.D.D.D.D.D.D.D.D.D.D.",
"D.D.D.D.D.D.D.D.D.D.D.D.D.D.D.D.D.D.D.D.A.A.A.A.A.A.A.A.A.A.A.A.A.A.A.A.A.A.A.A.#.J B.A.A.D.D.D.D.D.D.D.D.D.D.D.D.D.D.D.D.D.D.D.",
"D.D.D.D.D.D.D.D.D.D.D.D.D.D.D.D.D.D.D.D.A.A.A.A.A.A.A.A.A.B.#.h.A.A.A.A.A.A.A.k.;.  B A.A.D.D.D.D.D.D.D.D.D.D.D.D.D.D.D.D.D.D.D.",
"D.D.D.D.D.D.D.D.D.D.D.D.D.D.D.D.D.D.D.A.A.A.A.A.A.A.A.A.A.-.C   h.A.A.A.A.A.C.$.A.-   B.A.t.D.D.D.D.D.D.D.D.D.D.D.D.D.D.D.D.D.D.",
"D.D.D.D.D.D.D.D.D.D.D.D.D.D.D.D.D.D.D.A.A.A.A.A.A.A.A.A.j.B.C.  Z A.A.A.A.A.A.C M - B k.A.w.D.D.D.D.D.D.D.D.D.D.D.D.D.D.D.D.D.D.",
"D.D.D.D.D.D.D.D.D.D.D.D.D.D.D.D.D.D.D.A.A.A.A.A.A.A.A.A.h.Z H * Z A.A.A.A.Z.A.=.  N &.S.<.%.I q p y r r D.D.D.D.D.D.D.D.D.D.D.D.",
"D.D.D.D.D.D.D.D.D.D.D.D.D.D.D.D.D.D.D.A.A.A.A.A.A.A.A.A.C.O   #.-.A.d.a.l.,.,.E k 4 d z 7 5 q a e e D.D.D.D.D.D.D.D.D.D.D.D.D.D.",
"D.D.D.D.D.D.D.D.D.D.D.D.D.D.D.D.D.D.D.A.A.A.A.A.A.A.A.A.A.8.v J A.Z.y.b w 0 6 7 a s 8 , 2 x h D.D.D.D.D.D.D.D.D.D.D.D.D.D.D.D.D.",
"D.D.D.D.D.D.D.D.D.D.D.D.D.D.D.D.D.D.D.A.A.A.A.A.A.A.A.5.^ 5.C.A.Z.M.>.5 l s l t < : f T *.@.D.D.D.D.D.D.D.D.D.D.D.D.D.D.D.D.D.D.",
"D.D.D.D.D.D.D.D.D.D.D.D.D.D.D.D.D.D.D.A.A.A.A.A.A.A.A.v.7.7.C.A.f.d.;.1 3 > ; u Y $.a.u.& W D.D.D.D.D.D.D.D.D.D.D.D.D.D.D.D.D.D.",
"D.D.D.D.D.D.D.D.D.D.D.D.D.D.D.D.D.D.D.A.A.A.A.Z.Z.A.A.N.s.M.A.M.d.f.f.R c U :.S.A.g.g.4.+ F D.D.D.D.D.D.D.D.D.D.D.D.D.D.D.D.D.D.",
"D.D.D.D.D.D.D.D.D.D.D.D.D.D.D.D.D.D.D.x.A.A.A.d.f.A.k.  L A.=.u.f.f.m.m.f.n.A.A.Z.[ * n ..X.D.D.D.D.D.D.D.D.D.D.D.D.D.D.D.D.D.D.",
"D.D.D.D.D.D.D.D.D.D.D.D.D.D.D.D.D.D.D.{ Z.A.A.n.b.A.C.P k.Z   V m.) A 3.g.p.~ S r.K     ' o.D.D.D.D.D.D.D.D.D.D.D.D.D.D.D.D.D.D.",
"D.D.D.D.D.D.D.D.D.D.D.D.D.D.D.D.D.D.D.D.{ n.Z.d.f.f.Z.A.A.K   ! 2.    X p./     = | m F ..D.D.D.D.D.D.D.D.D.D.D.D.D.D.D.D.D.D.D.",
"D.D.D.D.D.D.D.D.D.D.D.D.D.D.D.D.D.D.D.D.} @.w.f.f.d.f.p.d.f.u.g.1.    o p./     % { X.e.} D.D.D.D.D.D.D.D.D.D.D.D.D.D.D.D.D.D.D.",
"D.D.D.D.D.D.D.D.D.D.D.D.D.D.D.D.D.D.D.D.D.{  .o.p.f.g.f.f.f.f.f.f.) D 2.g.f.Q m _ ....] D.D.D.D.D.D.D.D.D.D.D.D.D.D.D.D.D.D.D.D.",
"D.D.D.D.D.D.D.D.D.D.D.D.D.D.D.D.D.D.D.D.D.D.9.` { o.w.p.f.f.f.f.g.g.g.f.0.} ..X...` r.0.D.D.D.D.D.D.D.D.D.D.D.D.D.D.D.D.D.D.D.D.",
"D.D.D.D.D.D.D.D.D.D.D.D.D.D.D.D.D.D.D.D.D.A.A.0.` ' { { o.o.4.9.9.| { ] ' ' { ] ` 4.A.b.D.D.D.D.D.D.D.D.D.D.D.D.D.D.D.D.D.D.D.D.",
"D.D.D.D.D.D.D.D.D.D.D.D.D.D.D.D.D.D.D.D.D.A.A.A.i.{ ` ' ] ] { ' ' ' ] { { ' ` { i.A.A.b.' D.D.D.D.D.D.D.D.D.D.D.D.D.D.D.D.D.D.D.",
"D.D.D.D.D.D.D.D.D.D.D.D.D.D.D.D.D.D.D.D.A.A.A.A.A.Z.y.} ' ' ' ` ' ] ' ` ] } y.C.A.Z.n.u.+.D.D.D.D.D.D.D.D.D.D.D.D.D.D.D.D.D.D.D.",
"D.D.D.D.D.D.D.D.D.D.D.D.D.D.D.D.D.D.D.D.A.A.Z.Z.A.A.A.A.n.i.0.2.2.4.0.i.n.A.A.n.Z.M.d.r.+.{ D.D.D.D.D.D.D.D.D.D.D.D.D.D.D.D.D.D.",
"D.D.D.D.D.D.D.D.D.D.D.D.D.D.D.D.D.D.D.D.A.A.n.Z.A.A.A.A.A.A.A.A.A.A.A.A.A.A.A.Z.A.A.f.w...{ D.D.D.D.D.D.D.D.D.D.D.D.D.D.D.D.D.D.",
"D.D.D.D.D.D.D.D.D.D.D.D.D.D.D.D.D.D.D.D.n.A.A.A.A.A.A.A.A.A.A.A.A.A.A.A.A.A.A.n.b.b.f.9.' { D.D.D.D.D.D.D.D.D.D.D.D.D.D.D.D.D.D.",
"D.D.D.D.D.D.D.D.D.D.D.D.D.D.D.D.D.D.D.D.q.d.f.n.n.A.A.A.A.A.A.A.A.A.A.h.@ M N.p.p.f.f.o.' { D.D.D.D.D.D.D.D.D.D.D.D.D.D.D.D.D.D.",
"D.D.D.D.D.D.D.D.D.D.D.D.D.D.D.D.D.D.D.D.+.w.g.p.p.b.A.A.A.A.A.A.A.A.A.=.  . x.g.f.f.p.{ { { D.D.D.D.D.D.D.D.D.D.D.D.D.D.D.D.D.D.",
"D.D.D.D.D.D.D.D.D.D.D.D.D.D.D.D.D.D.D.D.X...a.f.d.g.A.A.A.A.A.A.A.A.A.A.-.8.Z.f.f.f.4.' ..{ D.D.D.D.D.D.D.D.D.D.D.D.D.D.D.D.D.D.",
"D.D.D.D.D.D.D.D.D.D.D.D.D.D.D.D.D.D.D.D.{ ` o.g.d.b.A.A.A.A.A.A.A.A.M.n.c.[ p.f.f.r.] ] +.{ D.D.D.D.D.D.D.D.D.D.D.D.D.D.D.D.D.D.",
"D.D.D.D.D.D.D.D.D.D.D.D.D.D.D.D.D.D.D.A.V.4.` 4.d.n.Z.p.Z.A.A.A.A.A.a.p.$   G m.p.{ ] ] q.D.D.D.D.D.D.D.D.D.D.D.D.D.D.D.D.D.D.D.",
"D.D.D.D.D.D.D.D.D.D.D.D.D.D.D.D.D.D.A.A.A.A.i.{ X.n.A.Z.A.A.A.A.A.A.M.g.A   ( f.{ ' {  .] D.D.D.D.D.D.D.D.D.D.D.D.D.D.D.D.D.D.D.",
"D.D.D.D.D.D.D.D.D.D.D.D.D.D.D.D.D.D.A.A.A.A.A.A.N.y.x.V.A.A.A.A.A.A.b.f.f.u.r.{ ] ' ' 4.Z.D.D.D.D.D.D.D.D.D.D.D.D.D.D.D.D.D.D.D.",
"D.D.D.D.D.D.D.D.D.D.D.D.D.D.D.D.D.A.A.A.A.A.A.A.A.A.A.Z.A.A.A.A.A.A.b.d.u.o.` ` ] 4.N.A.A.A.A.D.D.D.D.D.D.D.D.D.D.D.D.D.D.D.D.D.",
"D.D.D.D.D.D.D.D.D.D.D.D.D.D.D.D.D.A.A.A.A.A.A.A.A.A.A.A.A.A.A.A.A.A.c.o.{ | t.c.Z.A.A.A.A.A.A.A.D.D.D.D.D.D.D.D.D.D.D.D.D.D.D.D.",
"D.D.D.D.D.D.D.D.D.D.D.D.D.D.D.D.A.A.A.A.A.A.A.A.A.A.A.A.A.A.A.A.A.Z.V.Z.A.A.A.A.A.A.A.A.A.A.A.A.A.D.D.D.D.D.D.D.D.D.D.D.D.D.D.D.",
"D.D.D.D.D.D.D.D.D.D.D.D.D.D.D.A.A.A.A.A.A.A.A.A.A.A.A.A.A.A.A.A.A.A.A.A.A.A.A.A.A.A.A.A.A.A.A.A.A.A.D.D.D.D.D.D.D.D.D.D.D.D.D.D.",
"D.D.D.D.D.D.D.D.D.D.D.D.D.D.A.A.A.A.A.A.A.A.A.A.A.A.A.A.A.A.A.A.A.A.A.A.A.A.A.A.A.A.A.A.A.A.A.A.A.A.a.D.D.D.D.D.D.D.D.D.D.D.D.D.",
"D.D.D.D.D.D.D.D.D.D.D.D.D.N.A.b.n.A.A.A.A.A.A.A.A.A.A.A.A.A.A.A.A.A.A.A.A.A.A.A.A.A.A.A.A.A.A.A.A.A.A.| D.D.D.D.D.D.D.D.D.D.D.D.",
"D.D.D.D.D.D.D.D.D.D.D.D.X.M.A.A.A.A.A.A.A.A.A.A.A.A.A.A.A.A.A.A.A.A.A.A.A.A.A.A.A.A.A.A.A.A.A.A.A.A.A.n.' D.D.D.D.D.D.D.D.D.D.D.",
"D.D.D.D.D.D.D.D.D.D.D.D.r.d.Z.A.b.n.A.A.A.A.A.A.A.A.A.A.A.A.A.A.A.A.A.A.A.A.A.A.A.A.A.A.A.A.A.A.A.A.A.Z.X.D.D.D.D.D.D.D.D.D.D.D.",
"D.D.D.D.D.D.D.D.D.D.D.{ r.f.M.A.p.b.A.A.A.A.A.A.A.A.A.A.A.A.A.A.A.A.A.A.A.A.A.A.A.A.A.A.A.A.A.A.A.A.A.A.p.' D.D.D.D.D.D.D.D.D.D.",
"D.D.D.D.D.D.D.D.D.D.D.@.p.f.A.A.A.A.A.A.A.A.A.A.A.A.A.A.A.A.A.A.A.A.A.A.A.A.A.A.A.A.A.A.A.A.A.A.A.A.A.A.c. .D.D.D.D.D.D.D.D.D.D.",
"D.D.D.D.D.D.D.D.D.D.{ +.p.f.Z.A.A.A.A.A.A.A.Z.A.A.A.A.A.A.A.A.A.A.A.A.A.A.A.A.A.A.A.A.A.A.A.A.A.A.A.A.A.V.+.} D.D.D.D.D.D.D.D.D.",
"D.D.D.D.D.D.D.D.D.D.{ ..f.p.f.A.A.A.A.A.A.A.p.b.A.A.A.A.A.A.A.A.A.A.A.A.A.A.A.A.A.A.A.A.A.A.A.A.A.A.A.A.Z.o.{ D.D.D.D.D.D.D.D.D.",
"D.D.D.D.D.D.D.D.D.D.+.{ f.f.d.Z.A.b.b.A.A.A.Z.A.A.A.A.A.A.A.A.A.A.A.A.A.A.A.A.A.A.A.A.A.A.A.A.A.A.A.Z.A.A.| ..D.D.D.D.D.D.D.D.D.",
"D.D.D.D.D.D.D.D.D.} +.{ a.f.d.Z.A.p.p.Z.A.A.A.Z.A.A.A.A.A.A.A.A.A.A.A.A.A.A.A.A.A.A.A.A.A.A.A.A.A.b.p.f.Z.4.O.D.D.D.D.D.D.D.D.D.",
"D.D.D.D.D.D.D.D.D.{ O.{ p.f.f.Z.A.Z.A.A.A.Z.f.p.b.A.A.A.A.A.A.A.A.A.A.A.A.A.A.A.A.A.A.A.A.A.A.A.Z.d.f.d.f.o.O.} D.D.D.D.D.D.D.D.",
"D.D.D.D.D.D.D.D.D.{ X.' r.f.f.b.g.b.Z.A.Z.f.f.f.f.Z.A.A.A.M.Z.A.A.A.A.A.A.A.A.A.A.A.A.A.A.A.A.A.A.n.f.f.p.{ +.{ D.D.D.D.D.D.D.D.",
"D.D.D.D.D.D.D.D.D.{ ..] 4.f.d.d.d.d.p.f.d.d.f.f.f.f.n.A.A.p.f.A.A.A.A.A.A.A.A.A.A.A.A.A.A.A.A.A.A.A.f.d.p.{ O.{ D.D.D.D.D.D.D.D.",
"D.D.D.D.D.D.D.D.D.{ ..] { p.f.f.f.f.f.f.f.d.f.d.f.f.d.g.A.Z.Z.A.A.A.A.A.A.A.A.A.A.A.A.A.A.A.A.A.A.A.f.f.r.' o.{ D.D.D.D.D.D.D.D.",
"D.D.D.D.D.D.D.D.D.{ ..{ ' o.f.f.f.f.f.p.f.f.f.f.d.f.d.d.b.A.A.A.A.A.A.A.A.A.A.A.A.A.A.A.A.A.A.A.A.A.Z.d.4.' +.{ D.D.D.D.D.D.D.D.",
"D.D.D.D.D.D.D.D.D.{ ..' ] ' w.g.f.f.f.f.f.f.a.d.f.f.d.a.a.f.f.f.n.A.A.A.A.A.A.A.A.A.A.A.A.A.A.A.A.A.A.n.] { +.{ D.D.D.D.D.D.D.D.",
"D.D.D.D.D.D.D.D.f.p.9.o.{ { ' 9.f.p.f.f.d.f.f.f.f.f.f.f.d.d.f.f.d.Z.A.A.A.A.A.A.A.b.Z.A.A.A.A.n.r.Z.A.0.` { +.X.D.D.D.D.D.D.D.D.",
"D.D.D.D.D.D.f.M.M.f.g.f.p.p.w.w.p.f.f.f.f.a.d.f.f.f.p.f.f.f.f.f.d.M.A.A.A.A.A.A.n.r.f.A.A.A.A.Z.b.Z.i.` ] ' +.D.D.D.D.D.D.D.D.D.",
"D.D.D.D.D.g.M.f.f.f.d.f.f.f.g.f.f.f.f.f.f.d.f.f.f.f.f.f.f.f.d.p.b.A.A.A.A.A.A.A.Z.b.M.A.A.A.A.A.n.9.` ' { X.r.D.D.D.D.D.D.D.D.D.",
"D.D.D.D.D.M.d.f.f.f.f.f.f.d.a.a.f.d.f.f.d.f.f.f.f.f.f.f.p.b.Z.Z.A.A.A.A.A.A.A.A.A.A.A.A.Z.A.Z.f.p.r.r.u.p.f.f.m.D.D.D.D.D.D.D.D.",
"D.D.D.D.f.g.f.f.d.f.f.d.f.f.f.d.f.f.d.f.f.f.d.f.f.p.f.f.f.b.A.A.A.A.A.A.A.Z.n.n.Z.A.M.g.f.f.p.a.f.f.g.f.f.f.f.f.f.D.D.D.D.D.D.D.",
"D.D.f.M.g.f.d.f.f.f.d.f.f.f.d.f.f.f.d.f.f.f.f.f.f.f.f.d.f.d.g.Z.A.A.A.A.n.d.d.d.f.b.d.d.d.f.f.f.f.f.f.d.f.f.f.f.g.f.f.a.f.D.D.D.",
"D.M.f.f.f.f.f.f.a.f.f.f.f.f.f.f.f.f.f.f.f.f.f.f.f.f.f.f.f.f.d.M.A.A.A.A.f.f.f.f.f.f.f.f.f.f.f.f.f.f.f.f.f.f.f.f.a.g.b.g.M.M.g.D.",
"d.M.g.m.m.m.m.m.g.m.m.m.m.m.m.m.m.m.m.m.m.m.m.m.m.m.m.m.m.m.g.M.M.M.Z.M.m.m.m.m.m.m.m.m.m.m.m.m.m.m.m.m.m.m.m.m.g.g.g.g.g.g.A.D.",
"f.f.f.f.f.f.f.f.f.f.f.f.f.f.f.f.f.f.f.f.f.f.f.f.f.a.f.f.f.f.f.f.d.f.d.f.f.f.f.f.f.f.f.f.f.f.f.f.f.f.f.f.f.f.f.f.f.f.f.f.f.f.f.f."
};
