/* XPM */
static char *_633011662333[] = {
/* columns rows colors chars-per-pixel */
"64 64 152 2 ",
"   c #674027",
".  c #6E4528",
"X  c #754A2C",
"o  c #7A4D2E",
"O  c #7E502F",
"+  c #7E4F30",
"@  c #7F5030",
"#  c #864600",
"$  c #8B4A00",
"%  c #935100",
"&  c #9C5500",
"*  c #9D5B01",
"=  c #895211",
"-  c #9B5A17",
";  c #9A5A1B",
":  c #A05700",
">  c #A25B00",
",  c #AD5B00",
"<  c #A05F08",
"1  c #A05E15",
"2  c #9C621A",
"3  c #A96201",
"4  c #A4630F",
"5  c #A46312",
"6  c #A3631D",
"7  c #8C5620",
"8  c #81512F",
"9  c #965E25",
"0  c #9D5E23",
"q  c #945A2A",
"w  c #9B5E2A",
"e  c #845431",
"r  c #895632",
"t  c #855830",
"y  c #8C5933",
"u  c #935D35",
"i  c #9D642E",
"p  c #976037",
"a  c #9A6237",
"s  c #95613B",
"d  c #9C6439",
"f  c #A86626",
"g  c #A16428",
"h  c #AC6A2D",
"j  c #A06535",
"k  c #AC6C34",
"l  c #A1673B",
"z  c #A4693B",
"x  c #AC6F3D",
"c  c #B36F34",
"v  c #AE703E",
"b  c #B0713F",
"n  c #8F6848",
"m  c #946542",
"M  c #9D6741",
"N  c #9A6D46",
"B  c #976B49",
"V  c #986D4F",
"C  c #876A57",
"Z  c #926C53",
"A  c #9B7357",
"S  c #98765F",
"D  c #A06940",
"F  c #AF7242",
"G  c #B37442",
"H  c #B87744",
"J  c #BA7945",
"K  c #B07448",
"L  c #BC7B4A",
"P  c #A17452",
"I  c #BA7C50",
"U  c #B47E59",
"Y  c #937461",
"T  c #9B7D6B",
"R  c #907C74",
"E  c #C07C45",
"W  c #C07E4D",
"Q  c #998177",
"!  c #99837D",
"~  c #9E8B7F",
"^  c #A3806B",
"/  c #BA8660",
"(  c #C6804A",
")  c #CC854E",
"_  c #D0874D",
"`  c #D18954",
"'  c #C69472",
"]  c #9E8D83",
"[  c #948B8B",
"{  c #9B8C8A",
"}  c #8F8D92",
"|  c #9B9496",
" . c #99959D",
".. c #9E989B",
"X. c #A19692",
"o. c #969BA6",
"O. c #9C9AA2",
"+. c #9DA1A6",
"@. c #9FA5AF",
"#. c #A0A1A6",
"$. c #A2A7AC",
"%. c #AEA7A8",
"&. c #A4A8AF",
"*. c #A5B1BD",
"=. c #A9B1BA",
"-. c #D2C2B7",
";. c #A6B4C4",
":. c #A6B7C8",
">. c #ABBDCC",
",. c #BCC6CE",
"<. c #ACC3D5",
"1. c #B0C7D9",
"2. c #B1CADD",
"3. c #BFCED9",
"4. c #BFD1DD",
"5. c #B3CEE2",
"6. c #B7D3E6",
"7. c #BFD4E1",
"8. c #B5D3EA",
"9. c #B9D6EB",
"0. c #B9D8EE",
"q. c #BEDDF3",
"w. c #C7CAC8",
"e. c #D6CCC4",
"r. c #DACEC5",
"t. c #DBD1C9",
"y. c #CCD8DE",
"u. c #E5DCD5",
"i. c #C5D8E2",
"p. c #CDDBE3",
"a. c #C7E1EF",
"s. c #C0E1F6",
"d. c #CCE4F2",
"f. c #C5E6FB",
"g. c #CBE6F8",
"h. c #C6E9FE",
"j. c #CCECFE",
"k. c #D2EFFF",
"l. c #DBEFFB",
"z. c #CEF4FF",
"x. c #D5F1FF",
"c. c #DBF3FF",
"v. c #EAE5E1",
"b. c #EEECEA",
"n. c #E4F5FF",
"m. c #EAF7FF",
"M. c #E5F9FF",
"N. c #EDF9FF",
"B. c #F5F4F4",
"V. c #F5FAFF",
"C. c #FCFEFF",
"Z. c None",
/* pixels */
"Z.Z.Z.Z.Z.Z.Z.Z.Z.Z.Z.Z.Z.Z.Z.Z.Z.Z.C.C.C.C.C.Z.Z.Z.Z.Z.Z.Z.Z.Z.Z.Z.Z.Z.Z.Z.Z.Z.Z.Z.Z.Z.Z.Z.Z.Z.Z.Z.Z.Z.Z.Z.Z.Z.Z.Z.Z.Z.Z.Z.Z.Z.",
"Z.Z.Z.Z.Z.Z.Z.Z.Z.Z.Z.Z.Z.Z.Z.Z.Z.V.C.V.V.V.C.C.Z.Z.Z.Z.Z.Z.Z.Z.Z.Z.Z.Z.Z.Z.Z.Z.Z.Z.Z.Z.Z.Z.Z.Z.Z.Z.Z.Z.Z.Z.Z.Z.Z.Z.Z.Z.Z.Z.Z.Z.",
"Z.Z.Z.Z.Z.Z.Z.Z.Z.Z.Z.Z.Z.Z.Z.Z.V.C.V.N.m.V.N.C.V.Z.Z.Z.Z.Z.Z.Z.Z.Z.Z.Z.Z.Z.Z.Z.Z.Z.Z.Z.Z.Z.Z.Z.Z.Z.Z.Z.Z.Z.Z.Z.Z.Z.Z.Z.Z.Z.Z.Z.",
"Z.Z.Z.Z.Z.Z.Z.Z.Z.Z.Z.Z.Z.Z.Z.Z.V.V.N.c.x.N.c.n.V.Z.Z.Z.Z.Z.Z.Z.Z.Z.Z.Z.Z.Z.Z.Z.Z.Z.Z.Z.Z.Z.Z.Z.Z.Z.Z.Z.Z.Z.Z.Z.Z.Z.Z.Z.Z.Z.Z.Z.",
"Z.Z.Z.Z.Z.Z.Z.Z.Z.Z.Z.Z.Z.Z.Z.V.N.c.d.,.3.a.4.d.V.e.Z.Z.Z.Z.Z.Z.Z.Z.Z.Z.Z.Z.Z.Z.Z.Z.Z.Z.Z.Z.Z.Z.Z.Z.Z.Z.Z.Z.Z.Z.Z.Z.Z.Z.Z.Z.Z.Z.",
"Z.Z.Z.Z.Z.Z.Z.Z.Z.Z.Z.Z.Z.Z.Z.M.p.%.^ * * P & T i.w.Z.Z.Z.Z.Z.Z.Z.Z.Z.Z.Z.Z.Z.Z.Z.Z.Z.Z.Z.Z.Z.Z.Z.Z.Z.Z.Z.Z.Z.Z.Z.Z.Z.Z.Z.Z.Z.Z.",
"Z.Z.Z.Z.Z.Z.Z.Z.Z.Z.Z.Z.Z.Z.Z.p./ , k K G x K - y B Z.Z.Z.Z.Z.Z.Z.Z.Z.Z.Z.Z.Z.Z.Z.Z.Z.Z.Z.Z.Z.Z.Z.Z.Z.Z.Z.Z.Z.Z.Z.Z.Z.Z.Z.Z.Z.Z.",
"Z.Z.Z.Z.Z.Z.Z.Z.Z.Z.Z.Z.Z.Z.Z.U ) L F v x v v D p i Z.Z.Z.Z.Z.Z.Z.Z.Z.Z.Z.Z.Z.Z.Z.Z.Z.Z.Z.Z.Z.Z.Z.Z.Z.Z.Z.Z.Z.Z.Z.Z.Z.Z.Z.Z.Z.Z.",
"Z.Z.Z.Z.Z.Z.Z.Z.Z.Z.Z.Z.Z.Z.Z.E ` H v v v v v d s l Z.Z.Z.Z.Z.Z.Z.Z.Z.Z.Z.Z.Z.Z.Z.Z.Z.Z.Z.Z.Z.Z.Z.Z.Z.Z.Z.Z.Z.Z.Z.Z.Z.Z.Z.Z.Z.Z.",
"Z.Z.Z.Z.Z.Z.Z.Z.Z.Z.Z.Z.Z.Z.Z.L ` H v v v v b d s j Z.Z.Z.Z.Z.Z.Z.Z.Z.Z.Z.Z.Z.Z.Z.Z.Z.Z.Z.Z.Z.Z.Z.Z.Z.Z.Z.Z.Z.Z.Z.Z.Z.Z.Z.Z.Z.Z.",
"Z.Z.Z.Z.Z.Z.Z.Z.Z.Z.Z.Z.Z.Z.Z.( ` G v v v v v d a a Z.Z.Z.Z.Z.Z.Z.C.V.C.C.C.C.V.V.Z.Z.Z.Z.Z.Z.Z.Z.Z.Z.Z.Z.Z.Z.Z.Z.Z.Z.Z.Z.Z.Z.Z.",
"Z.Z.Z.Z.Z.Z.Z.Z.Z.Z.Z.Z.Z.Z.Z.J ` G x v v v v d s l Z.Z.Z.Z.Z.Z.V.C.C.V.V.V.V.C.C.C.V.Z.Z.Z.Z.Z.Z.Z.Z.Z.Z.Z.Z.Z.Z.Z.Z.Z.Z.Z.Z.Z.",
"Z.Z.Z.Z.Z.Z.Z.Z.Z.Z.Z.Z.Z.Z.Z.' ` J c v c k h ; % Z.Z.Z.Z.Z.Z.V.C.V.V.V.V.V.V.V.V.V.C.V.V.Z.Z.Z.Z.Z.Z.Z.Z.Z.Z.Z.Z.Z.Z.Z.Z.Z.Z.Z.",
"Z.Z.Z.V.C.C.V.C.C.C.C.C.C.V.V.C.B.B.B.B.b.v.u.r.-.t.Z.Z.V.V.C.C.V.V.V.V.V.V.V.V.V.V.V.V.C.V.Z.Z.Z.Z.Z.Z.Z.Z.Z.Z.Z.Z.Z.Z.Z.Z.Z.Z.",
"Z.V.C.C.C.C.V.V.V.V.V.V.V.V.V.V.V.V.V.V.V.V.V.C.V.C.C.C.C.C.C.V.V.V.V.V.V.V.V.V.V.V.V.V.V.C.C.V.Z.Z.Z.Z.Z.Z.Z.Z.Z.Z.Z.Z.Z.Z.Z.Z.",
"V.C.V.V.V.V.V.N.c.c.c.V.V.V.V.V.V.V.V.V.V.V.V.V.V.V.V.N.m.V.V.V.V.V.V.V.V.V.V.V.V.V.n.c.n.V.V.C.C.V.Z.Z.Z.Z.Z.Z.Z.Z.Z.Z.Z.Z.Z.Z.",
"V.V.V.V.V.V.N.x.k.k.x.c.m.V.V.V.V.V.V.V.V.V.m.n.n.x.x.x.k.x.c.n.N.V.V.V.V.V.V.V.N.x.x.x.x.c.N.V.V.C.V.Z.Z.Z.Z.Z.Z.Z.Z.Z.Z.Z.Z.Z.",
"c.V.V.V.V.M.x.x.c.k.k.k.x.n.n.N.V.N.N.n.n.l.x.x.x.x.x.c.c.x.x.x.c.n.N.V.V.V.V.V.c.x.x.x.k.k.c.N.V.V.C.C.V.Z.Z.Z.Z.Z.Z.Z.Z.Z.Z.Z.",
"g.V.V.V.n.x.x.x.k.s.5.q.f.h.j.x.c.k.c.x.x.x.k.k.j.j.f.h.f.j.j.k.x.x.x.c.n.m.n.c.x.f.2.;.1.h.x.x.N.V.V.V.C.V.Z.Z.Z.Z.Z.Z.Z.Z.Z.Z.",
"Z.N.V.c.x.x.x.s.>.R T ] { =.5.0.q.q.q.q.0.8.8.2.>.=.#.| | $.>.2.8.q.f.j.j.k.z.j.8...A 2 B  .8.j.x.m.V.V.V.C.V.Z.Z.Z.Z.Z.Z.Z.Z.Z.",
"Z.f.c.x.j.f.<.[ = * w > * 9 q Z ] X.X.] T B p a a g 6 4 5 6 i a m ~ &.;.:.<.1.*.Y % i s q $ C >.j.k.c.n.V.V.V.C.Z.Z.Z.Z.Z.Z.Z.Z.",
"Z.0.z.q.<.} t $ s s s s d l d j 0 1 6 f k v G G H J L L L L L J H c 3 & % s n $ q d s s d d w 7 @.9.h.x.x.x.c.n.n.Z.Z.Z.Z.Z.Z.Z.",
"Z.Z.+.R p * x F x F v v F v v b G F F F G v v v v F v v F F G G G K K K F x z F F v b b v v F x * Y *.2.q.h.h.h.z.7.Z.Z.Z.Z.Z.Z.",
"Z.Z.# 0 v F F F v v v v v v v v v v v v v v v v v v v v v v v x x x x x v b G v x b x b v v v F K k > N {  . .O.o.[ a u Z.Z.Z.Z.",
"Z.Z.s l v v v v v x b v b x b x v v v v v v v v v b v v b v v v b x v x v x v x v v v v v v v v v F F x , > > > > * a d u Z.Z.Z.",
"Z.Z.u d v v v v v v x v x b v v v v x v v v v v v x x v x b x b b b b G G G G G G G G G G G G G G v v F F K K K F K b z u l u Z.",
"Z.Z.u d b x x x v x x x v x x b v x x x x x v x x x v v x x v v x b b b b b b G G G H H J J J G b v v v F v x x b x z d s u Z.Z.",
"Z.Z.u l x b G G G G G G G G G G G G G G b G G b G G x G F b v v b x v x v x v b x v v x v x v x v v v v v v b b z d a u Z.Z.Z.Z.",
"Z.Z.y l b F G G H G G G G G b G b b b G b b F v v v G x x b v v v v v v v v v v v v v x v v v v v v v b x x x d d u Z.Z.Z.Z.Z.Z.",
"Z.Z.u l x x x b b b b b v v x x x v x x v v v v v v v v x v v x v v v v v v v v v v v v v v z x x z x x x d s u u Z.Z.Z.Z.Z.Z.Z.",
"Z.Z.u d u s a a a a a l l z b v v v v v v v v v v x v v b v x x v b v b v v v x v v x x v v z a u p u u d u u Z.Z.Z.Z.Z.Z.Z.Z.Z.",
"Z.Z.u s u u a a d z z x v x v v v v v v v v v v v v v v v v v G b G K H G H H J H H G G G v b v d u a p u Z.Z.Z.Z.Z.Z.Z.Z.Z.Z.Z.",
"Z.Z.u d x x x b b v v v v v v v v v x b x v b x v v v v v v x b v v v v b G G H J G H G b G v z d a u Z.Z.Z.Z.Z.Z.Z.Z.Z.Z.Z.Z.Z.",
"Z.Z.u d v v v x v v v x v v v v v v v b b v v b v x v v v v v x v v v v v v v v x x v v v l d s u Z.Z.Z.Z.Z.Z.Z.Z.Z.Z.Z.Z.Z.Z.Z.",
"Z.Z.u l d l l l l l l l l d l d a a s a a a a s d d l d l l l l l d l l d a d v v v b z d a u Z.Z.Z.Z.Z.Z.Z.Z.Z.Z.Z.Z.Z.Z.Z.Z.Z.",
"Z.Z.u u u u u u u u u u u u u a l s p p u a a u u u u u u u u u u u u u p p d v v x d d u u Z.Z.Z.Z.Z.Z.Z.Z.Z.Z.Z.Z.Z.Z.Z.Z.Z.Z.",
"Z.Z.Z.Z.Z.Z.Z.Z.Z.Z.Z.Z.Z.Z.Z.G ) G b z l b v l a d Z.Z.Z.Z.Z.Z.Z.Z.Z.Z.Z.u d v d d u u Z.Z.Z.Z.Z.Z.Z.Z.Z.Z.Z.Z.Z.Z.Z.Z.Z.Z.Z.Z.",
"Z.Z.Z.Z.Z.Z.Z.Z.Z.Z.Z.Z.Z.Z.Z.v ) H b a d b x d u d Z.Z.Z.Z.Z.Z.Z.Z.Z.Z.Z.u p a u u Z.Z.Z.Z.Z.Z.Z.Z.Z.Z.Z.Z.Z.Z.Z.Z.Z.Z.Z.Z.Z.Z.",
"Z.Z.Z.Z.Z.Z.Z.Z.Z.Z.Z.Z.Z.Z.Z.v ( H x u l b x u a j Z.Z.Z.Z.Z.Z.Z.Z.Z.Z.Z.u p u Z.Z.Z.Z.Z.Z.Z.Z.Z.Z.Z.Z.Z.Z.Z.Z.Z.Z.Z.Z.Z.Z.Z.Z.",
"Z.Z.Z.Z.Z.Z.Z.Z.Z.Z.Z.Z.Z.Z.Z.v E H z u d b l y a d Z.Z.Z.Z.Z.Z.Z.Z.Z.Z.Z.u Z.Z.Z.Z.Z.Z.Z.Z.Z.Z.Z.Z.Z.Z.Z.Z.Z.Z.Z.Z.Z.Z.Z.Z.Z.Z.",
"Z.Z.Z.Z.Z.Z.Z.Z.Z.Z.Z.Z.Z.Z.Z.v E J l u a b a r u j Z.Z.Z.Z.Z.Z.Z.Z.Z.Z.Z.Z.Z.Z.Z.Z.Z.Z.Z.Z.Z.Z.Z.Z.Z.Z.Z.Z.Z.Z.Z.Z.Z.Z.Z.Z.Z.Z.",
"Z.Z.Z.Z.Z.Z.Z.Z.Z.Z.Z.Z.Z.Z.Z.v E H s u d x u r u l Z.Z.Z.Z.Z.Z.Z.Z.Z.Z.Z.Z.Z.Z.Z.Z.Z.Z.Z.Z.Z.Z.Z.Z.Z.Z.Z.Z.Z.Z.Z.Z.Z.Z.Z.Z.Z.Z.",
"Z.Z.Z.Z.Z.Z.Z.Z.Z.Z.Z.Z.Z.Z.Z.v E F u y l d u r u u Z.Z.Z.Z.Z.Z.Z.Z.Z.Z.Z.Z.Z.Z.Z.Z.Z.Z.Z.Z.Z.Z.Z.Z.Z.Z.Z.Z.Z.Z.Z.Z.Z.Z.Z.Z.Z.Z.",
"Z.Z.Z.Z.Z.Z.Z.Z.Z.Z.Z.Z.Z.Z.Z.v E x u u a a a 8 e y Z.Z.Z.Z.Z.Z.Z.Z.Z.Z.Z.Z.Z.Z.Z.Z.Z.Z.Z.Z.Z.Z.Z.Z.Z.Z.Z.Z.Z.Z.Z.Z.Z.Z.Z.Z.Z.Z.",
"Z.Z.Z.Z.Z.Z.Z.Z.Z.Z.Z.Z.Z.Z.Z.v E z u u u u p e o y Z.Z.Z.Z.Z.Z.Z.Z.Z.Z.Z.Z.Z.Z.Z.Z.Z.Z.Z.Z.Z.Z.Z.Z.Z.Z.Z.Z.Z.Z.Z.Z.Z.Z.Z.Z.Z.Z.",
"Z.Z.Z.Z.Z.Z.Z.Z.Z.Z.Z.Z.Z.Z.Z.v E z u u u u p r + r Z.Z.Z.Z.Z.Z.Z.Z.Z.Z.Z.Z.Z.Z.Z.Z.Z.Z.Z.Z.Z.Z.Z.Z.Z.Z.Z.Z.Z.Z.Z.Z.Z.Z.Z.Z.Z.Z.",
"Z.Z.Z.Z.Z.Z.Z.Z.Z.Z.Z.Z.Z.Z.Z.v E z u u u u u e O y Z.Z.Z.Z.Z.Z.Z.Z.Z.Z.Z.Z.Z.Z.Z.Z.Z.Z.Z.Z.Z.Z.Z.Z.Z.Z.Z.Z.Z.Z.Z.Z.Z.Z.Z.Z.Z.Z.",
"Z.Z.Z.Z.Z.Z.Z.Z.Z.Z.Z.Z.Z.Z.Z.v E l y p u u p y o y Z.Z.Z.Z.Z.Z.Z.Z.Z.Z.Z.Z.Z.Z.Z.Z.Z.Z.Z.Z.Z.Z.Z.Z.Z.Z.Z.Z.Z.Z.Z.Z.Z.Z.Z.Z.Z.Z.",
"Z.Z.Z.Z.Z.Z.Z.Z.Z.Z.Z.Z.Z.Z.Z.v E d r u u u u e O y Z.Z.Z.Z.Z.Z.Z.Z.Z.Z.Z.Z.Z.Z.Z.Z.Z.Z.Z.Z.Z.Z.Z.Z.Z.Z.Z.Z.Z.Z.Z.Z.Z.Z.Z.Z.Z.Z.",
"Z.Z.Z.Z.Z.Z.Z.Z.Z.Z.Z.Z.Z.Z.Z.v E d e u u y r r o y Z.Z.Z.Z.Z.Z.Z.Z.Z.Z.Z.Z.Z.Z.Z.Z.Z.Z.Z.Z.Z.Z.Z.Z.Z.Z.Z.Z.Z.Z.Z.Z.Z.Z.Z.Z.Z.Z.",
"Z.Z.Z.Z.Z.Z.Z.Z.Z.Z.Z.Z.Z.Z.Z.v E d o u u r e r o y Z.Z.Z.Z.Z.Z.Z.Z.Z.Z.Z.Z.Z.Z.Z.Z.Z.Z.Z.Z.Z.Z.Z.Z.Z.Z.Z.Z.Z.Z.Z.Z.Z.Z.Z.Z.Z.Z.",
"Z.Z.Z.Z.Z.Z.Z.Z.Z.Z.Z.Z.Z.Z.Z.v E u X u d r o o e r Z.Z.Z.Z.Z.Z.Z.Z.Z.Z.Z.Z.Z.Z.Z.Z.Z.Z.Z.Z.Z.Z.Z.Z.Z.Z.Z.Z.Z.Z.Z.Z.Z.Z.Z.Z.Z.Z.",
"Z.Z.Z.Z.Z.Z.Z.Z.Z.Z.Z.Z.Z.Z.Z.v E u o y s @ o o + 8 Z.Z.Z.Z.Z.Z.Z.Z.Z.Z.Z.Z.Z.Z.Z.Z.Z.Z.Z.Z.Z.Z.Z.Z.Z.Z.Z.Z.Z.Z.Z.Z.Z.Z.Z.Z.Z.Z.",
"Z.Z.Z.Z.Z.Z.Z.Z.Z.Z.Z.Z.Z.Z.Z.a J u X 8 u @ o . o O Z.Z.Z.Z.Z.Z.Z.Z.Z.Z.Z.Z.Z.Z.Z.Z.Z.Z.Z.Z.Z.Z.Z.Z.Z.Z.Z.Z.Z.Z.Z.Z.Z.Z.Z.Z.Z.Z.",
"Z.Z.Z.Z.Z.Z.Z.Z.Z.Z.Z.Z.Z.Z.Z.u G u X O y O + . o o Z.Z.Z.Z.Z.Z.Z.Z.Z.Z.Z.Z.Z.Z.Z.Z.Z.Z.Z.Z.Z.Z.Z.Z.Z.Z.Z.Z.Z.Z.Z.Z.Z.Z.Z.Z.Z.Z.",
"Z.Z.Z.Z.Z.Z.Z.Z.Z.Z.Z.Z.Z.Z.Z.u x u X O e O o . . X Z.Z.Z.Z.Z.Z.Z.Z.Z.Z.Z.Z.Z.Z.Z.Z.Z.Z.Z.Z.Z.Z.Z.Z.Z.Z.Z.Z.Z.Z.Z.Z.Z.Z.Z.Z.Z.Z.",
"Z.Z.Z.Z.Z.Z.Z.Z.Z.Z.Z.Z.Z.Z.Z.p z y + + o o o .   X Z.Z.Z.Z.Z.Z.Z.Z.Z.Z.Z.Z.Z.Z.Z.Z.Z.Z.Z.Z.Z.Z.Z.Z.Z.Z.Z.Z.Z.Z.Z.Z.Z.Z.Z.Z.Z.Z.",
"Z.Z.Z.Z.Z.Z.Z.Z.Z.Z.Z.Z.Z.Z.Z.u l r X + o o o .   o Z.Z.Z.Z.Z.Z.Z.Z.Z.Z.Z.Z.Z.Z.Z.Z.Z.Z.Z.Z.Z.Z.Z.Z.Z.Z.Z.Z.Z.Z.Z.Z.Z.Z.Z.Z.Z.Z.",
"Z.Z.Z.Z.Z.Z.Z.Z.Z.Z.Z.Z.Z.Z.Z.p z y X o o o + .   o Z.Z.Z.Z.Z.Z.Z.Z.Z.Z.Z.Z.Z.Z.Z.Z.Z.Z.Z.Z.Z.Z.Z.Z.Z.Z.Z.Z.Z.Z.Z.Z.Z.Z.Z.Z.Z.Z.",
"Z.Z.Z.Z.Z.Z.Z.Z.Z.Z.Z.Z.Z.Z.Z.p l r o o o o o .   X Z.Z.Z.Z.Z.Z.Z.Z.Z.Z.Z.Z.Z.Z.Z.Z.Z.Z.Z.Z.Z.Z.Z.Z.Z.Z.Z.Z.Z.Z.Z.Z.Z.Z.Z.Z.Z.Z.",
"Z.Z.Z.Z.Z.Z.Z.Z.Z.Z.Z.Z.Z.Z.Z.u l y o o o o O .   o Z.Z.Z.Z.Z.Z.Z.Z.Z.Z.Z.Z.Z.Z.Z.Z.Z.Z.Z.Z.Z.Z.Z.Z.Z.Z.Z.Z.Z.Z.Z.Z.Z.Z.Z.Z.Z.Z.",
"Z.Z.Z.Z.Z.Z.Z.Z.Z.Z.Z.Z.Z.Z.Z.p l y X + o o o .   X Z.Z.Z.Z.Z.Z.Z.Z.Z.Z.Z.Z.Z.Z.Z.Z.Z.Z.Z.Z.Z.Z.Z.Z.Z.Z.Z.Z.Z.Z.Z.Z.Z.Z.Z.Z.Z.Z.",
"Z.Z.Z.Z.Z.Z.Z.Z.Z.Z.Z.Z.Z.Z.Z.u l r X o o o o .   X Z.Z.Z.Z.Z.Z.Z.Z.Z.Z.Z.Z.Z.Z.Z.Z.Z.Z.Z.Z.Z.Z.Z.Z.Z.Z.Z.Z.Z.Z.Z.Z.Z.Z.Z.Z.Z.Z.",
"Z.Z.Z.Z.Z.Z.Z.Z.Z.Z.Z.Z.Z.Z.Z.d z u + e 8 e 8 X . o Z.Z.Z.Z.Z.Z.Z.Z.Z.Z.Z.Z.Z.Z.Z.Z.Z.Z.Z.Z.Z.Z.Z.Z.Z.Z.Z.Z.Z.Z.Z.Z.Z.Z.Z.Z.Z.Z."
};
