/* XPM */
static char *_98aa669eb9b46a2f9c022ea71f91253XwUbU0zSFY0UzpGq[] = {
/* columns rows colors chars-per-pixel */
"59 64 151 2 ",
"   c None",
".  c black",
"X  c #2A2A2A",
"o  c #44403D",
"O  c #4E5559",
"+  c #515A5F",
"@  c #55687A",
"#  c #676868",
"$  c #717373",
"%  c #7B7876",
"&  c gray50",
"*  c #B90500",
"=  c #BF1F00",
"-  c #BF3300",
";  c #C41300",
":  c #C82C00",
">  c #CC3900",
",  c #DE3A00",
"<  c #E63800",
"1  c #D14000",
"2  c #DD5304",
"3  c #E14200",
"4  c #EC4900",
"5  c #F44E00",
"6  c #C94E26",
"7  c #C54D23",
"8  c #CE5227",
"9  c #D35328",
"0  c #C45638",
"q  c #DC5D3A",
"w  c #D75A35",
"e  c #E85C2F",
"r  c #E5623B",
"t  c #BB7B79",
"y  c #C56147",
"u  c #D46142",
"i  c #D16548",
"p  c #EA7051",
"a  c #C2776E",
"s  c #82807F",
"d  c #587688",
"f  c #627786",
"g  c #717E86",
"h  c #748087",
"j  c #79878E",
"k  c #748189",
"l  c #6C8395",
"z  c #7E909A",
"x  c #7993A7",
"c  c #898989",
"v  c #838283",
"b  c #918E8E",
"n  c #959595",
"m  c #8C9CA6",
"M  c #96A3AA",
"N  c #95A6B0",
"B  c #99ACBA",
"V  c #A3A4A4",
"C  c #A4A8AA",
"Z  c #A1B0B9",
"A  c #B6B6B6",
"S  c #BCB9B8",
"D  c #D19287",
"F  c #F8AD9E",
"G  c #D0A4AF",
"H  c #D3A6A1",
"J  c #D9BFBF",
"K  c #E9A5A0",
"L  c #92AEC5",
"P  c #9DB4C4",
"I  c #A7BAC6",
"U  c #B3BDC3",
"Y  c #FFB5D8",
"T  c #ACC4CF",
"R  c #B1C4CF",
"E  c #B9C2C2",
"W  c #B3C6D0",
"Q  c #B9CEDA",
"!  c #B6CAD6",
"~  c #A6CDEA",
"^  c #ABCEEB",
"/  c #ACCCE6",
"(  c #B2CEE5",
")  c #AED0EC",
"_  c #B2D3ED",
"`  c #B9D7EE",
"'  c #BDD8EE",
"]  c #AED6F2",
"[  c #B4D7F3",
"{  c #B6D9F6",
"}  c #BADAF3",
"|  c #B6DCFA",
" . c #BADEFB",
".. c #BCE1FD",
"X. c gray76",
"o. c #C9C9C9",
"O. c #C4CCC8",
"+. c #D0C9D0",
"@. c gray82",
"#. c #DDDDDD",
"$. c #D1D1DA",
"%. c #E9CCC7",
"&. c #FFD0C9",
"*. c #FFC4DF",
"=. c #E3DAD9",
"-. c #FFD7D0",
";. c #F3DADC",
":. c #C3D6E1",
">. c #C5DAE7",
",. c #C8D7ED",
"<. c #C7DDEB",
"1. c #DCDFE2",
"2. c #C3DEF2",
"3. c #C8DFF2",
"4. c #F1CCE7",
"5. c #FFD5EB",
"6. c #FADFED",
"7. c #D9E3E8",
"8. c #C5E1F6",
"9. c #CCE3F4",
"0. c #C4E2FA",
"q. c #CBE6F9",
"w. c #C3E8FF",
"e. c #CEEAFC",
"r. c #D4E5F4",
"t. c #D4EAF6",
"y. c #DAE9F6",
"u. c #D4EDFD",
"i. c #DAEBFA",
"p. c #D6F0FF",
"a. c #DAF2FF",
"s. c #DEF8FF",
"d. c #E5E4E4",
"f. c #EBEBEB",
"g. c #E5E8ED",
"h. c #FBE8E7",
"j. c #FFF0EB",
"k. c #E1EDF7",
"l. c #E3EEF8",
"z. c #FFE0F1",
"x. c #E9F1F7",
"c. c #E3F4FE",
"v. c #EAF5FD",
"b. c #E1FAFF",
"n. c #EDFBFF",
"m. c #E5F4F6",
"M. c #F3F3F3",
"N. c #F3F7FB",
"B. c #F4FBFF",
"V. c #FFFFFF",
"C. c #FEF5F2",
/* pixels */
"                                                      V.V.V.V.V.V.                                                    ",
"                                                V.V.V.V.V.V.V.V.V.V.V.V.                                              ",
"                                              V.V.V.V.V.V.V.V.V.V.V.V.V.V.                                            ",
"                                          V.V.V.V.V.V.V.V.V.V.V.V.V.V.V.V.V.V.                                        ",
"                                        V.V.V.V.V.V.V.V.V.V.V.V.V.V.V.V.V.V.V.V.                                      ",
"                                      V.V.V.V.V.V.V.V.V.V.V.V.V.V.V.V.V.V.V.V.V.                                      ",
"                                      V.V.V.V.V.V.V.V.V.V.V.V.V.V.V.V.V.V.A X.V.V.                                    ",
"                                    V.V.V.V.V.V.V.V.V.d.o.V.V.V.V.V.V.V.f.X.. o.V.N.                                  ",
"                                    V.V.V.V.V.V.V.V.V.o.X n V.V.V.V.V.M.#.B.. v V.x.                                  ",
"                                    V.V.V.V.V.V.V.V.#.V.A . M.V.V.V.V.V.b s s C V.B.                                  ",
"                                  V.V.V.V.V.V.V.V.V.o.V c # d.V.B.V.V.V.E . C =.j.;.G   q 9 8 6                       ",
"                                  V.V.V.V.V.V.V.V.V.f.. # o.M.c.s.h.&.&.F w 1 p r < 3 e 6 7                           ",
"                                  V.V.V.V.V.V.V.V.V.V.o.$ #.V.s.K 5 4 < 2 q q > ; 0 t                                 ",
"                                  V.V.V.V.V.V.V.C.4.Y 5.V.V.n.d.2 w u u 8 ; - a o.,.[                                 ",
"                                  V.V.V.V.V.V.V.V.z.4.6.V.v.p.y.i : : * y H $.s.R d (                                 ",
"                                  B.V.V.V.B.B.V.B.m.p.V.V.a.p.a.+.a D %.C.B.s.s.B @ (                                 ",
"                                    V.V.V.c.u.V.=.. 7.M.:.a.a.b.b.a.b.V.V.n.I O L w.                                  ",
"                                    9.V.V.n.c.V.M.S f.o . :.t.m R a.a.U M u.g . f [                                   ",
"                                    ^ c.V.a.p.a.B.V.v.g + r.j . . <.Q . . m ( l ^ }                                   ",
"                                      [ 2.a.a.p.p.u.a.a.p.b.h . . <.Q . . l { { _                                     ",
"                                        [ } u.a.a.a.a.a.a.a.9.N ! s.a.P x / _ [                                       ",
"                                        2.] _ } e.a.a.a.a.a.s.b.s.q.` [ { _ ^ q.                                      ",
"                                        V.r.~ ^ ^ _ } 2.8.8.2.` ) ^ ^ _ ^ ^ y.V.'                                     ",
"                                      V.V.V.k._ ^ ^ _ ^ ) ^ ^ ^ ) _ ^ ~ _ l.V.V.u.                                    ",
"                                      V.V.V.V.B.r.` ^ ^ ^ ^ ^ ^ ^ ^ _ r.V.V.B.c.q.)                                   ",
"                                    V.V.V.B.V.V.V.B.v.r.3.<.2.9.r.v.V.V.v.B.c.p.} )                                   ",
"                                    v.V.B.n.V.V.V.V.V.V.V.V.V.V.V.V.V.V.B.V.B.a.} {                                   ",
"                                    <.V.B.V.V.V.V.V.V.V.V.V.V.V.V.V.V.V.n.c.c.p.[ ..                                  ",
"                                    _ u.a.c.c.V.V.V.V.V.V.V.V.V.M.$ % v.u.p.p.u.) ..                                  ",
"                                    _  .a.p.p.c.V.V.V.V.V.V.V.V.f.. . g.s.p.a.9.^ 0.                                  ",
"                                    _ { t.a.a.c.V.V.V.V.V.V.V.V.V.d.7.n.a.a.p.` ^  .                                  ",
"                                    } | [ a.u.c.V.B.V.V.V.V.V.B.c.v.:.u.a.a.9.^ ) _                                   ",
"                                    B.r.~ [ p.n.B.u.V.V.V.V.V.v.a.z . B b.q.^ _ { _                                   ",
"                                  V.V.V.v.,._ v.V.B.V.V.V.V.V.B.b.Z . W p._ _ ^ |                                     ",
"                                V.V.V.V.V.V.v.r.k.N.B.V.V.V.V.n.a.s.t.q._ ^ ^ ^ c.V.                                  ",
"                              V.V.V.V.V.V.V.V.V.V.B.V.V.V.V.V.n.p.u.} ~ ~ _ r.N.V.V.V.                                ",
"                              V.V.V.V.V.V.V.V.V.V.V.V.V.V.V.V.v.2.` ` r.k.B.V.V.V.V.V.V.                              ",
"                            V.V.V.V.V.V.V.V.V.V.V.V.V.V.V.V.V.N.N.B.V.V.V.V.V.V.V.V.V.V.V.                            ",
"                          V.V.V.V.V.V.V.V.V.V.V.V.V.V.V.V.V.V.V.V.V.V.V.V.V.V.V.V.V.V.V.V.V.                          ",
"                          V.B.V.V.V.V.V.V.V.V.V.V.V.V.V.V.V.V.V.V.V.V.V.V.V.V.V.V.V.V.V.V.V.c.                        ",
"                        v.V.a.B.V.V.V.V.V.V.V.V.V.V.V.V.V.V.V.V.V.V.V.V.V.V.V.V.V.V.V.V.V.V.V.<.                      ",
"                      } n.V.V.V.V.V.V.V.V.V.V.V.V.V.V.V.V.V.V.V.V.V.V.V.V.V.V.V.V.V.V.V.V.V.V.c.)                     ",
"                      w.a.B.B.s.B.V.V.V.V.V.V.V.V.V.V.V.V.V.V.V.V.V.V.V.V.V.V.V.V.V.V.V.V.V.V.B.)                     ",
"                    _ u.a.B.B.p.B.V.V.V.V.V.V.V.V.V.V.V.V.V.V.V.V.V.V.V.V.V.V.V.V.V.V.V.V.V.V.V.e.)                   ",
"                    [ u.c.V.V.B.V.V.V.V.V.V.V.V.V.V.V.V.V.V.V.V.V.V.V.V.V.V.V.V.V.V.V.V.V.V.V.V.i.^                   ",
"                  _ 0.u.a.B.V.V.V.V.V.V.B.B.V.V.V.V.V.V.V.V.V.V.V.V.V.V.V.V.V.V.V.V.V.V.V.V.V.V.v.|                   ",
"                  _ { a.p.c.V.V.V.V.V.V.c.a.V.V.V.V.V.V.V.V.V.V.V.V.V.V.V.V.V.V.V.V.V.V.V.V.V.V.N. ._                 ",
"                  _ _ a.a.a.V.B.a.B.V.V.V.B.V.V.V.V.V.V.V.V.V.V.V.V.V.V.V.V.V.V.V.V.V.V.V.V.B.B.B.} _                 ",
"                   ._ u.a.a.V.n.u.c.V.V.V.B.V.V.V.V.V.V.V.V.V.V.V.V.V.V.V.V.V.V.V.V.V.V.V.v.u.a.B.' )                 ",
"                  ..^ u.a.a.V.V.B.V.V.V.a.u.c.V.V.V.V.V.V.V.V.V.V.V.V.V.V.V.V.V.V.V.V.V.V.a.a.a.u._  .                ",
"                `  .^ q.a.a.c.c.n.B.B.v.p.a.p.B.V.V.V.n.B.V.V.V.V.V.V.V.V.V.V.V.V.V.V.V.V.n.p.a.u._  .                ",
"                `  .^ 2.a.a.u.u.p.p.p.p.p.a.a.a.v.V.B.e.n.V.V.V.V.V.V.V.V.V.V.V.V.V.V.V.V.V.c.a.t.) ..                ",
"                _  .) _ u.a.a.a.a.p.a.a.a.a.a.a.p.c.V.B.V.V.V.V.V.V.V.V.V.V.V.V.V.V.V.V.V.V.c.a.q.^ ..                ",
"                '  ._ ^ 8.a.a.a.i.a.a.p.a.a.p.a.a.u.n.V.B.V.V.V.V.V.V.V.V.V.V.V.V.V.V.V.V.V.B.p.} ^ ..                ",
"                ` | ^ ^ ) e.a.a.a.a.a.a.p.a.i.p.a.a.a.s.p.c.B.V.V.V.V.V.V.V.V.V.V.V.V.V.B.V.V.v.^ ) ..                ",
"              a.u.q.} _ ) ) t.a.p.a.a.p.a.a.a.a.a.a.a.u.p.p.c.V.V.V.V.V.V.B.v.B.V.V.V.B.u.v.V.9.^ )  .                ",
"            a.n.s.a.a.p.t.q.t.a.a.a.a.a.a.a.a.p.a.a.a.a.a.p.c.V.V.V.V.V.V.s.e.c.V.V.V.B.c.B.y.^ ) ) )                 ",
"          a.b.a.p.a.a.a.a.a.a.p.p.a.p.a.a.p.a.a.p.a.p.p.p.p.B.V.V.V.V.V.V.B.c.B.V.V.V.V.n.q.^ ) [ } 9.                ",
"        a.n.a.a.a.a.a.a.a.p.a.a.a.a.a.a.a.a.a.a.a.a.p.n.B.B.V.V.V.V.V.V.V.V.V.V.V.B.B.c.u.e.e.t.u.a.b.s.              ",
"      a.a.a.a.p.p.a.a.p.a.a.a.p.p.a.p.p.a.p.a.p.a.a.p.n.V.V.V.V.V.V.B.v.v.B.V.c.a.a.a.u.a.a.a.a.a.a.a.n.a.            ",
"  a.b.n.a.a.a.a.p.a.a.a.a.p.a.a.a.a.a.a.a.a.a.a.p.a.a.i.n.V.V.V.V.n.p.p.p.a.c.p.a.a.a.a.p.a.a.p.a.a.a.a.a.a.a.p.      ",
"  n.a.a.a.a.a.a.a.p.a.a.a.a.a.a.a.a.a.p.a.a.a.a.a.a.a.p.a.V.V.V.V.s.a.a.a.a.a.a.a.a.a.a.a.a.a.a.a.a.a.a.a.b.s.b.n.a.  ",
"s.b.s.b.b.b.b.b.b.b.b.b.b.b.c.b.b.b.b.b.b.b.b.b.b.b.c.b.b.n.n.B.n.b.b.b.b.b.b.b.b.b.b.b.b.b.b.b.b.b.b.b.b.s.s.c.s.B.a.",
"a.a.a.a.a.a.a.a.a.a.a.a.a.a.a.a.a.a.a.a.a.a.a.a.a.a.a.a.a.p.a.p.a.a.a.a.a.a.a.a.a.a.a.a.a.a.a.a.a.a.a.a.a.a.a.s.a.a.a."
};
