/* XPM */
static char *_633011683165[] = {
/* columns rows colors chars-per-pixel */
"64 64 90 1 ",
"  c #0092FB",
". c #0E97FB",
"X c #1495FA",
"o c #1D95FC",
"O c #2797FB",
"+ c #3D9EF7",
"@ c #3798FC",
"# c #3B9DFC",
"$ c #00B1F2",
"% c #3AA3FF",
"& c #3CB7F3",
"* c #469EFB",
"= c #42A2F7",
"- c #44A7FC",
"; c #4BACF8",
": c #51A6FC",
"> c #41B7F3",
", c #44B8F3",
"< c #4CBAF3",
"1 c #51B3F5",
"2 c #55BBF4",
"3 c #5CBDF4",
"4 c #51B2FC",
"5 c #5AB3F9",
"6 c #61BEF4",
"7 c #75B5FC",
"8 c #57C0F5",
"9 c #5EC0F5",
"0 c #56C0FF",
"q c #5CC9FF",
"w c #64C1F6",
"e c #6BC3F6",
"r c #67C4F8",
"t c #6AC5F8",
"y c #63CCFF",
"u c #6CCCFF",
"i c #75C3F5",
"p c #79C5F5",
"a c #7EC8F6",
"s c #70C7F8",
"d c #75CCFC",
"f c #79CDFC",
"g c #6AD1FF",
"h c #77D0FF",
"j c #7CD0FF",
"k c #83C9F6",
"l c #8BCBF6",
"z c #83CEF9",
"x c #89CFF9",
"c c #92CFF7",
"v c #93C2FD",
"b c #9BCBFB",
"n c #82D2FF",
"m c #8AD6FF",
"M c #85DEFF",
"N c #8ED8FF",
"B c #92D1F7",
"V c #99D2F7",
"C c #92D6FD",
"Z c #9AD6FA",
"A c #93DBFF",
"S c #9ADEFF",
"D c #A7CEFE",
"F c #A2D6F8",
"G c #A3DCFE",
"H c #ABDDFD",
"J c #B4DEFA",
"K c #9FE1FF",
"L c #A0E2FF",
"P c #ABE2FF",
"I c #A5EAFF",
"U c #A8EEFF",
"Y c #B3E4FF",
"T c #BBE2FC",
"R c #BFE9FF",
"E c #ABF0FF",
"W c #C5E5FC",
"Q c #CBE5FC",
"! c #C5EBFF",
"~ c #CBEBFE",
"^ c #D4ECFD",
"/ c #DAEDFD",
"( c #DEF1FE",
") c #E3F3FE",
"_ c #E9F6FE",
"` c #EDF9FF",
"' c #F0F7FF",
"] c #F3FBFF",
"[ c #FDFFFF",
"{ c None",
/* pixels */
"{{{{{{{{{{{{{{{{{{{{{{{{{{{{{{{{{{{{{{{{{{{{{{{{{{{{{{{{{{{{{{{{",
"{{{{{SMqyyyyyyyyyyyyyyyyyyyyyyyyyyyyyyyyyyyyyyyyyyyyyyyygC{{{{{{",
"{{{{NEz2393339333333333333933333339339333333393333393333wKK{{{{{",
"{{{CELG6333333333333333333333333333333333333333333333332rKIS{{{{",
"{{NULK/e333933333333333333933333333333333333333333333333rKKIS{{{",
"{CIKKK_k,22222222222222222222222223333233333333333333333eKKKIS{{",
"mIIYUY]Jsappppiiiippiiipipipsiiiiee666333333333233323232eKKKKLC{",
"9eVW(][[[[[[[[]]]``)))(/^~~~~~!RTYYPGSSANnddfmmNnfffffffdserrwg{",
"332>2B]!HJHHGSSZSACNNmmnnnjKKKKKKKKKKLLLLAnnKKKLAnnnnnnmd23333q{",
"33362r)GuhhfhjjfjjjnnfznnjNKKKKLKKKKKKKLSjjNLKKSnnnnnnnnd33333y{",
"33333e)PjnnnnnnmnnnnnnnnjNKKKKKLKKKKKKKKnjnKKKKNnnnnnnnnd33333y{",
"33333w)GjnnnnnnnnnnnnnnnjKKKKKKKKKKKKKKNnnAKKKNnnnnnnnnnn33333y{",
"333333)HfnnnnnnnnnnnnnnjNKKKKKKKKKKKKKSnnNKKKKnnnnnnnnnnN33333y{",
"333332/GjnnnnnnnnnnnnnnnKKKKKKLKKKKKKKmnjSKKKNjnnnnnnnjSA33333y{",
"333332/SjnnnnnnnnnnnnnnAKKKKLKKKKKKKLSjnNKKKSnnnnnnnnnNLN33333y{",
"33336</GjnnnnnnnnnnnnnnKKKKKKKKLKKKKKnnnKKKKnnnnnnnnjjKLC33339y{",
"33336,^ZjnnnnnnnnnnnnnSKKKLKKKKKKKKKCjjAKKLAjnnnnnnnjAKLA33339q{",
"33336>^SjnnnnnnnnnnnnNKKKKKKLKKKKKLKnjNKKKKnnnnnnnnnnKKLC33333y{",
"33336,QZjnnnnnnnnnnnnKKKLKKKKKKKKKKnjnKKKKNjnnnnnnnnSKKLN33333y{",
"33336,WCjnnnnnnnnnnjSLKKKKKKKKLKLLAnnAKKKSnnnnnnnnjNLKKLA93339y{",
"33336<JCjnnnnnnnnnnnKKKKKKKLKKKKLKnjnKKKKnnnnnnnnnnKKKKLC33333y{",
"33333<HNnnnnnnnnnnnKKKKKLKKKKKKKLNnnSKKKNjnnnnnnnjALKKKLA33339y{",
"33333<FNjnnnnnnnnnNLKKKKKKLKKKKKSnnNKKKSnnnnnnnnnnKKKKKLN33339y{",
"333332ZmnnnnnnnnnnKKKKKKKKKKKKKKnjnSKKKNnnnnnnnnnSKKKKKKj23333y{",
"333332xnnnnnnnnnnSKKKKLKKKKKKKKCnnNKKKAjnnnnnnnnNKKKKKKKd33333y{",
"333332zmnnnnnnnjNKKKKKKKKLKKKKKnnnKKKKnnnnnnnnnnKKKKKKKnd33333y{",
"333333dnnnnnnnnnKKKKKKKKKKKLKKNnnKKKLNnnnnnnnnnAKKKKKKAnd33339y{",
"333333ennnnnnnnCKKKKLKKKLKKKKSnnNLKKKnnnnnnnnjnLKKKKKKnnd33333y{",
"333333tznnnnnznKKKKKKKLKKKKKKnjnKKKKnnnnnnnnnnSKKKKKKnnnf33333y{",
"333333tnnnnnnnSLKKKKKKKKKKKKCnnNKKKAnnnnnnnnjNKKKKKKAnnnd33333y{",
"3333336nnnnnjNKKKKKKKKKKKKLSnnNKKKKnjnnnnnnnnKKKKKKKnnnnd33333y{",
"333333tnnnnnnKLKKKKKKKKKKLKmnnSKKKNnnnnnnnnnALKKKKKNnnnnf23339y{",
"333333rnnnnnALKKKLKKKKLKKKSjjNKKKKjnnnnnnnnnKKKKKLKjnnnnf33333q{",
"333333rnnnnnKKKLKKKKKKKKKKnnnKKKKnnnnnnnnnnKLLLKKKmjnnnnf33333y{",
"333333ennnnSKKKKKKKLLKKKLNjnSKKKNnnnnnnnnjNKKKKKLAjnnnnmf33339y{",
"333332rnnnNLKKKKKKKKKKKLKnjNKKKKnnnnnnnnnnKKKKKLKnnnnnnnd33339y{",
"333333rnnnKKKKKKLKKKKKLKmnnKKKLNnnnnnnnnjSKKKKKKmjnnnnnnf33333y{",
"333333rnjSKKKKKLKKKLKKLAjjNKKKSjnnnnnnnnNKKKKKKSnnnnnnnnd33333y{",
"333332tnmKKKKLKLKLKKKLKnnnKKKKnnnnnnnnnnKKKKKKKnnnnnnnnnd33333y{",
"333333tnSKKKKKKKKKKKLLNjnAKKKCnnnnnnnnjALKKKKLCnnnnnnnnnf23339y{",
"333333rNLKKKKKKKKKKLLSnnmKKKSnnnnnnnnnnKKKKKKSnnnnnnnnnnf33333y{",
"333333eSKKLKKKKKLKKKKnnnKKKKNjnnnnnnnnKKKKKKKNjnnnnnnnnnj33333y{",
"333333fLKKKKLKKKKKKLAnnCKKKSjnnnnnnnjNLKKKKKSjnnnnnnnnnnN66333y{",
"333332fKKLKKKKKLKKLSnnnKKKKnnnnnnnnnnKLKKKKKnjnnnnnnnnnjS63333y{",
"333333pKKKKKKKKKKKKNjnSKKKNjnnnnnnjnAKKKKKLNnnnnnnnnnnmjYs2333y{",
"393332fKKKKLKKKKKKSnnNKKKSnnnnnnnnjmKKKKKLSjnnnnnnnnnnnhWp2333y{",
"333392fKKLKLKKKKKKmjnKKKKmnnnnnnnnnKKKKKKKNnnnnnnnnnnnnu^k2333y{",
"333332aLKKKKKKKKKNnjALKKAjnnnnnnnjNKKKKKLAjnnnnnnnnnnnnf/l<339y{",
"333333aKKKKKKKKLSnnnKKLKnnnnnnnnnnKLKKKKKnnnnnnjnnnnnnnj(l<333y{",
"333332fKKKKKKKKKmnnSLKLNjnnnnnnnnAKKKKKKNnnnnnnnnnnnnnnj)V<333y{",
"333332fKKKKKKKLSnnNKKKKnnnnnnnnnmKKKKKKSjnnnnnnnnnnnnnnn)F,339y{",
"333392fKKKKKKKKmjnKKKKnjnnnnnnnnKKKKLKKmnnnnnnnnnnnnnnnn`H,633y{",
"333332aKKLKKKKmjnSKKLAjnnnnnnnnNKKKKKKAjnnnnnnnnnnnnnnnm`J>w33y{",
"333332fLKKKKKSnnnKKKKnnnnnnnnjnKKKKKKSnnnnnnnnnnnnnnnnjN]T>333y{",
"333332pLKKLKKmjnKKKKNjnnnnnnnnSLKKKKKNnnnnnnnnnnnnnnnnjA]Q>633y{",
"333333fLLKKLAnjAKKKSnjnnnnnnjmKSKKKKAjfjjjjfjjffjhfhjfuC[^$333y{",
"993933fLKKKKnnmKKKKnnnnnnnmnmKPPLIPPSCSSGGGHHHPPPYYYYTY~[_cke3y{",
"14;;;-1sssseweeseiertesspzzlNZFFHJTJTWWQQ^^^^^////(()))_['/Qb50{",
"{#@@@@-332333322323332333222221<<<<,,,,,>&&&>>,<<<222332)D .O%+{",
"{{*%@+;3333333393333333333333336363666666666w3w33633336&QvX*-={{",
"{{{+%@;333333333333333333333333333333333333333333336336<H7O-={{{",
"{{{{+#;6333333333333333333333333333333333333333333333332p:%={{{{",
"{{{{{#133333333336333336339336336333333663333336333333333-={{{{{",
"{{{{{{133333333333333333333333333333333333333333333333333-{{{{{{"
};
