/* XPM */
static char *_633011673590[] = {
/* columns rows colors chars-per-pixel */
"64 64 183 2 ",
"   c #3B7B78",
".  c #437D7B",
"X  c #4F7B7B",
"o  c #FF242A",
"O  c #FF2B3E",
"+  c #FF263C",
"@  c #FF303E",
"#  c #FF3B3D",
"$  c #FF423F",
"%  c #FF3542",
"&  c #FF3B44",
"*  c #817B76",
"=  c #B96B67",
"-  c #A77B72",
";  c #D35D5E",
":  c #FF4747",
">  c #FF4947",
",  c #FF4B4A",
"<  c #FF594A",
"1  c #EB5250",
"2  c #FE5454",
"3  c #FD5B55",
"4  c #FE5C5C",
"5  c #FE515D",
"6  c #FE694C",
"7  c #FE764F",
"8  c #FF7858",
"9  c #FF5E66",
"0  c #FF5E69",
"q  c #FC5364",
"w  c #CB6561",
"e  c #D1656C",
"r  c #FF6666",
"t  c #FF6966",
"y  c #FF6469",
"u  c #FF6A6A",
"i  c #FE7465",
"p  c #FE7B64",
"a  c #FF786A",
"s  c #FF7171",
"d  c #4D857E",
"f  c #5B857E",
"g  c #6A837C",
"h  c #FD894F",
"j  c #FE8B56",
"k  c #FE895E",
"l  c #FD9E5C",
"z  c #FE9655",
"x  c #FEA35C",
"c  c #FEAA59",
"v  c #FEB45C",
"b  c #FEBA5F",
"n  c #FE8263",
"m  c #FE8C63",
"M  c #FE896C",
"N  c #FE846A",
"B  c #FD9B72",
"V  c #FB927A",
"C  c #ED8B67",
"Z  c #FEA361",
"A  c #FEB561",
"S  c #FEBA61",
"D  c #FEBD6D",
"F  c #FBA777",
"G  c #ECBF7D",
"H  c #FEB778",
"J  c #FDC26F",
"K  c #FEC177",
"L  c #FEC379",
"P  c #1D878B",
"I  c #2F8885",
"U  c #378887",
"Y  c #278A90",
"T  c #2D9391",
"R  c #4A8D8D",
"E  c #488988",
"W  c #578A86",
"Q  c #448E90",
"!  c #4B9397",
"~  c #529192",
"^  c #5C9595",
"/  c #5B979A",
"(  c #5E9A9B",
")  c #74938A",
"_  c #639695",
"`  c #659895",
"'  c #639798",
"]  c #669999",
"[  c #6A9B9B",
"{  c #759A93",
"}  c #749E9A",
"|  c #698B81",
" . c #7EA09A",
".. c #7AA6A7",
"X. c #00C5FD",
"o. c #00CAFF",
"O. c #00D0FF",
"+. c #22CDFF",
"@. c #2CCDFF",
"#. c #34CDFE",
"$. c #24D3FF",
"%. c #3AD2FF",
"&. c #36D5FF",
"*. c #46D4FF",
"=. c #51D9FF",
"-. c #63D8FF",
";. c #7EDEFF",
":. c #808989",
">. c #86A29B",
",. c #97A897",
"<. c #A9AC94",
"1. c #93A8A1",
"2. c #9BB7B7",
"3. c #9AB8B8",
"4. c #84AAAA",
"5. c #A5BEBE",
"6. c #B2BBB3",
"7. c #DCAC82",
"8. c #DCBD8B",
"9. c #D7BD93",
"0. c #E4BD8E",
"q. c #FEBD85",
"w. c #FDB080",
"e. c #EBB8AC",
"r. c #FECB85",
"t. c #FFC48A",
"y. c #F6CA8E",
"u. c #FDCC8C",
"i. c #F3C78A",
"p. c #FFD18F",
"a. c #E9C592",
"s. c #E6C697",
"d. c #FDCE91",
"f. c #F6C791",
"g. c #FED293",
"h. c #FFD49A",
"j. c #FFD999",
"k. c #ECC48B",
"l. c #D6CBB5",
"z. c #FFD7A2",
"x. c #FFDBA4",
"c. c #FFDBAB",
"v. c #EBD3B1",
"b. c #FFDCB0",
"n. c #FFE0AF",
"m. c #FFE1B1",
"M. c #ABC1C1",
"N. c #A8C4C8",
"B. c #B5CAC9",
"V. c #BED1D3",
"C. c #81DDFF",
"Z. c #8BE1FF",
"A. c #96E4FF",
"S. c #AAE6FE",
"D. c #D9D5C7",
"F. c #C9D8D9",
"G. c #D3DEDD",
"H. c #D9DAD3",
"J. c #DCE1D6",
"K. c #F5E0C5",
"L. c #FEE5C4",
"P. c #FFEBCB",
"I. c #FEECD4",
"U. c #F7EAD9",
"Y. c #D4E1E2",
"T. c #D9E2E2",
"R. c #C4EAFA",
"E. c #D3F1FD",
"W. c #DDF3FD",
"Q. c #D9EEF5",
"!. c #E6E6E6",
"~. c #E3E9E9",
"^. c #EBECEC",
"/. c #E8E9E2",
"(. c #F2EEE5",
"). c #EBF3ED",
"_. c #FFF3E5",
"`. c #EDF2F2",
"'. c #E4F2F6",
"]. c #F5F5F5",
"[. c #FFFFFF",
"{. c #F6F8F8",
"}. c None",
/* pixels */
"}.}.}.}.}.}.}.}.}.}.}.}.}.}.}.}.}.}.}.}.}.}.}.}.}.}.}.}.}.}.}.}.}.}.}.}.}.}.}.}.}.}.}.}.}.}.}.}.}.}.}.}.}.}.}.}.}.}.}.}.}.}.}.}.",
"}.}.}.}.}.}.}.}.}.}.}.}.}.}.}.}.}.}.}.}.}.}.}.}.}.}.}.}.}.}.}.}.}.}.}.}.}.}.}.}.}.}.}.}.}.}.}.}.}.}.}.}.}.}.}.}.}.}.}.}.}.}.}.}.",
"}.}.}.}.}.}.}.}.}.}.}.}.}.}.}.}.}.}.}.}.}.}.}.}.}.}.}.}.}.: , , }.}.}.}.}.}.}.}.}.}.}.}.}.}.}.}.}.}.}.}.}.}.}.}.}.}.}.}.}.}.}.}.",
"}.}.}.}.}.}.}.}.}.}.}.}.}.}.}.}.}.}.}.}.}.}.}.}.}.}.}.}., , , , }.}.}.}.}.}.}.}.}.}.}.}.}.}.}.}.}.}.}.}.}.}.}.}.}.}.}.}.}.}.}.}.",
"}.}.}.}.}.}.}.}.}.}.}.}.}.}.}.}.}.}.}.}.}.}.}.}.}.}.}.}., , > , }.}.}.}.}.}.}.}.}.}.}.}.}.}.}.}.}.}.}.}.}.}.}.}.}.}.}.}.}.}.}.}.",
"}.}.}.}.}.}.}.}.}.}.}.}.}.}.}.}.}.}.}.: , > : : : }.}.: , : > : }.}.}.}.}.}.}.}.}.}.}.}.}.}.}.}.}.}.}.}.}.}.}.}.}.}.}.}.}.}.}.}.",
"}.}.}.}.}.}.}.}.}.}.}.}.}.}.}.}.}.}.}.: , > : > , : : : : : , , }.}.}.}.}.}.}.}.}.}.}.}.}.}.}.}.}.}.}.}.}.}.}.}.}.}.}.}.}.}.}.}.",
"}.}.}.}.}.}.}.}.}.}.}.}.}.}.}.}.}.}.}.}., , : : > : , , 4 9 r r t u u s u s u s u u t r r r }.}.}.}.}.}.}.}.}.}.}.}.}.}.}.}.}.}.",
"}.}.}.}.}.}.}.}.}.}.}.}.}.}.}.}.}.}.}.}.}., : : : > 4 r t r r r y r r r t r r r r r r t t u s r y }.}.}.}.}.}.}.}.}.}.}.}.}.}.}.",
"}.}.}.}.}.}.}.}.}.}.}.}.}.}.}.}.}.}.}.}.}.}.}.: , r t r r t r y y t r r r r r r r r r r r r y r u u t }.}.}.}.}.}.}.}.}.}.}.}.}.",
"}.}.}.}.}.}.}.}.}.}.}.}.}.}.}.}.}.}.}.}.}., : > r y r r y r r r r r r r r r r r r t r y t r r r t y u y }.}.}.}.}.}.}.}.}.}.}.}.",
"}.}.}.}.}.}.}.}.}.}.}.}.}.}.}.}.}.}.}.}.: , : 9 t r r r r r t r r r r t y r t r r r r r r r r r r t y t t }.}.}.}.}.}.}.}.}.}.}.",
"}.}.}.}.}.}.}.}.}.}.}.}.}.}.}.}.}.}.: , : : 2 t r r r r r r r r r r r r r r r r r r t r r r r r r r r t t t }.}.}.}.}.}.}.}.}.}.",
"}.}.}.}.}.}.}.}.}.}.}.}.}.}.}.}.}.> , > : : r y r r r r r r r r r r r r r t r r r r r r r r r r r r r r y u y }.}.}.}.}.}.}.}.}.",
"}.}.}.}.}.}.}.}.}.}.}.}.}.}.}.}.}., : : : > r r t y r r r r r r y r r r r r r r r r r r r r r t r r r r t t y }.}.}.}.}.}.}.}.}.",
"}.}.}.}.}.}.}.}.}.}.}.}.}.}.}.}.: : : : : 2 t r r r r r r r r t t r r r r r r r r r r r r r r y r r r r y t u }.}.}.}.}.}.}.}.}.",
"}.}.}.}.}.}.}.}.}.}.}.}.}.}.}., , : : : : 4 y r r r r t r r r r r r r r r r r r r r r r r r r r r r y t r r u y }.}.}.}.}.}.}.}.",
"}.}.}.}.}.}.}.}.}.}.}.}.}.}.}.> : , : : : y t r r r r r r r r r r r r r r r r r r r t r r r r r r r r r r r u t }.}.}.}.}.}.}.}.",
"}.}.}.}.}.}.}.}.}.}.}.}.}.}.}., : : : : > y r r r r r r r r r r r y t r r r r r r r r r r r r r r t r r r r t r }.}.}.}.}.}.}.}.",
"}.}.}.}.}.}.}.}.}.}.}.}.}.}.: , : : : : > r r r r r r r r r r r r t r r r r t r r r r r r r r r r r r r r y t r }.}.}.}.}.}.}.}.",
"}.}.}.}.}.}.}.}.}.}.}.}.}.}.: , : : : : , r r r r r r r r r r r r r r r r r r r r r r r r r r r r r t r r r r r }.}.}.}.}.}.}.}.",
"}.}.}.}.}.}.}.}.}.}.}.}.}.}.: , > : : : > r r r r r r t r r r r r r r r r r r r r r r r r r r r r r r r r r r r }.}.}.}.}.}.}.}.",
"}.}.}.}.}.}.}.}.}.}.}.}.}.}.: : : : : : : r y r r r r r r t r r r r r r r r r r r r r t i y r r r r r r r t r r }.}.}.}.}.}.}.}.",
"}.}.}.}.}.}.}.}.}.}.}.}.}.}., : : : : : : 9 t r r r r r r r r r r r r t r r r r r r y p m 9 t r r r r r r y t y }.}.}.}.}.}.}.}.",
"}.}.}.}.}.}.}.}.}.}.}.}.}.}., , : : : > : 2 t r r r r y r r r r r r r r r t r t r t 9 m Z 9 t r r r r r r r t r }.}.}.}.}.}.}.}.",
"}.}.}.}.}.}.}.}.}.}.}.}.}.}., , : : : : : 2 t y r r t t t r t r t t y y t y r y 9 y 9 Z A t 9 r r t r r r y s }.}.}.}.}.}.}.}.}.",
"}.}.}.}.}.}.}.}.}.}.}.}.}.}., : > : : : > & 5 y r r r 9 y 9 y 9 9 0 9 0 9 r r 8 n k x v v x p u y y 9 9 r u t }.}.}.}.}.}.}.}.}.",
"}.}.}.}.}.}.}.}.}.}.}.}.}.}., > : : : > % 6 j i y y i n p p k n k h z l F D H H L L L L K K D v c x Z Z a }.}.}.}.}.}.}.}.}.}.}.",
"}.}.}.}.}.}.}.}.}.}.}.}.}.}., > : : > & j S S p y 9 n S S v D K g.P.I.m.r.g.p.d.d.g.d.d.g.u.j.m.m.g.K S p }.}.}.}.}.}.}.}.}.}.}.",
"}.}.}.}.}.}.}.}.}.}.}.}.}.: , : > > & 8 S A v p 9 r p A v D u.c.{.A.-.S.L.r.d.u.d.u.d.d.u.z.'.Z.Z.'.c.r.N }.}.}.}.}.}.}.}.}.}.}.",
"}.}.}.}.}.}.}.}.}.}.}.}.}.: , : : > & x S v S i r 9 i v v u.u._.;.X.o.X.S.z.u.d.d.d.d.d.r.(.&.X.X.&.(.j.V }.}.}.}.}.}.}.}.}.}.}.",
"}.}.}.}.}.}.}.}.}.}.}.}.}.: , > : : > c A A A t r r i v D u.h.'.o.+.+.o.*.K.r.d.d.d.d.u.g.R.o.#.#.O.S.x.}.}.}.}.}.}.}.}.}.}.}.}.",
"}.}.}.}.}.}.}.}.}.}.}.}.}.: , : : > & x S b Z 9 r r u v K u.h.W.o.+.o.o.%.K.r.g.d.d.d.u.h.R.o.@.#.o.R.x.}.}.}.}.}.}.}.}.}.}.}.}.",
"}.}.}.}.}.}.}.}.}.}.}.}.}., : : : > & 6 S b m 9 r r i v K d.d.].%.o.#.o.C.b.u.d.d.d.u.d.u.^.o.X.o.o.).t.q }.}.}.}.}.}.}.}.}.}.}.",
"}.}.}.}.}.}.}.}.}.}.}.}.: , : , : : > % 7 c i y r r a v K h.r.L.E.o.o.=./.u.u.d.u.d.d.d.u.c.E.-.-.E.c.M 9 }.}.}.}.}.}.}.}.}.}.}.",
"}.}.}.}.}.}.}.}.}.}.}.}., : : : : : : > & 2 t r r 9 p A D d.d.r.L.`.Q.U.g.u.d.d.d.d.d.u.p.r.z.I.I.x.B y t }.}.}.}.}.}.}.}.}.}.}.",
"}.}.}.}.}.}.}.}.}.}.}.: , : : : > : : : : 4 r r r r r z A u.d.g.u.g.g.r.u.g.g.g.g.u.g.g.g.g.y.r.H M 9 t r }.}.}.}.}.}.}.}.}.}.}.",
"}.}.}.}.}.}.}.}.}.}.> > : : : : : : : : 2 r r r r r 4 % < C 7.0.a.k.i.f.y.y.i.G y.y.t.t.q.H F p 9 y t r u }.}.}.}.}.}.}.}.}.}.}.",
"}.}.}.}.}.}.}.}.}., , : : : : : : : , : 4 r r y r t 3 $ ; X . d ^ _ { ) ) | 1.H.>.] - > : % O @ 4 t y r u y }.}.}.}.}.}.}.}.}.}.",
"}.}.}.}.}.}.}.}.}., : : : : : : : : : : r r r r r r > 1 d d f f W ] ' ( ' R 3.`...^ T = & : , : 2 t r r u t }.}.}.}.}.}.}.}.}.}.",
"}.}.}.}.}.}.}.}.: , : : : : : , : : : , y t r r t r # = I g W f f ` ` [ ] [ _ U R [ ] g , : : : , r u t s }.}.}.}.}.}.}.}.}.}.}.",
"}.}.}.}.}.}.}.}.: , : : , : : : : : : : 2 y y t y , & w I .   . W ` ] ] ' [ ^ 2.M.` ~ * , : , , : y y t y }.}.}.}.}.}.}.}.}.}.}.",
"}.}.}.}.}.}.}.}.> , : : : : : : : : : : : > 2 2 > : , o e.J.H.D.} ' ] ] [ [ R F.`.U 6.u @ > > > : }.}.}.}.}.}.}.}.}.}.}.}.}.}.}.",
"}.}.}.}.}.}.}.}.: , : : : : : : : : : : : : : : : > , + H h.h.h.} ] } [ [ [ [ [ ' } f.< : > : > : }.}.}.}.}.}.}.}.}.}.}.}.}.}.}.",
"}.}.}.}.}.}.}.}.}.: : : : : : : : : : : : : > > : : , O B g.u.u.{ U R R R ~ R ~ P ,.p.3 : : > , : }.}.}.}.}.}.}.}.}.}.}.}.}.}.}.",
"}.}.}.}.}.}.}.}.}.}., , : , : : : : : : : : : : : : , % m g.d.u.l.V.B.N.M.5.5.M.N.l.g.w.@ > > , : }.}.}.}.}.}.}.}.}.}.}.}.}.}.}.",
"}.}.}.}.}.}.}.}.}.}., , : : : : , : : : : > : : : : > + B g.d.u.v.F.F.G.T.T.T.T.T.l.u.g.n @ , , }.}.}.}.}.}.}.}.}.}.}.}.}.}.}.}.",
"}.}.}.}.}.}.}.}.}.}.}.}., , : : : : : , : : : : : : > % F g.y.p.8.Y R R R R R R Q ~ a.g.q.& , > }.}.}.}.}.}.}.}.}.}.}.}.}.}.}.}.",
"}.}.}.}.}.}.}.}.}.}.}.}.}.: , , : > : : : : : : : : , % F g.u.g.a.] [ [ [ [ [ [ [ / >.d.d.8 % }.}.}.}.}.}.}.}.}.}.}.}.}.}.}.}.}.",
"}.}.}.}.}.}.}.}.}.}.}.}.}.}.}.: > , , : : : > : , : : + F g.d.d.a._ [ [ ] ] ] ] ] [ ! <.j.B }.}.}.}.}.}.}.}.}.}.}.}.}.}.}.}.}.}.",
"}.}.}.}.}.}.}.}.}.}.}.}.}.}.}.}.}.: : : , , , , > , : e ,.j.y.g.9.! [ ' ] ] ] ] ] [ [ ! s.}.}.}.}.}.}.}.}.}.}.}.}.}.}.}.}.}.}.}.",
"}.}.}.}.}.}.}.}.}.}.}.}.}.}.}.}.}.}.}.}.}.}., : > : # :.( a.g.d.,./ [ ] ' [ ] ] ] ] ] [ } }.}.}.}.}.}.}.}.}.}.}.}.}.}.}.}.}.}.}.",
"}.}.}.}.}.}.}.}.}.}.}.}.}.}.}.}.}.}.}.}.}.}.}.}.}.}.}.3.U } <.>./ [ ] ] ] ] ] ] ] [ [ [ ~ }.}.}.}.}.}.}.}.}.}.}.}.}.}.}.}.}.}.}.",
"}.}.}.}.}.}.}.}.}.}.}.}.}.}.}.}.}.}.}.}.}.}.}.}.}.}.}.{.Y...Y R ^ ' ] [ [ ] ] ] / ~ R / B.}.}.}.}.}.}.}.}.}.}.}.}.}.}.}.}.}.}.}.",
"}.}.}.}.}.}.}.}.}.}.}.}.}.}.}.}.}.}.}.}.}.}.}.}.}.}.}.}.}.`.F.5.4.[ ^ ~ / ' ] [ 4.2.F.T.}.}.}.}.}.}.}.}.}.}.}.}.}.}.}.}.}.}.}.}.",
"}.}.}.}.}.}.}.}.}.}.}.}.}.}.}.}.}.}.}.}.}.}.}.}.}.}.}.}.}.}.[.[.[.].^.^.~.~.~.^.^.].].^.}.}.}.}.}.}.}.}.}.}.}.}.}.}.}.}.}.}.}.}.",
"}.}.}.}.}.}.}.}.}.}.}.}.}.}.}.}.}.}.}.}.}.}.}.}.}.}.}.}.}.}.[.[.[.[.[.[.}.}.}.[.!.!.!.!.}.}.}.}.}.}.}.}.}.}.}.}.}.}.}.}.}.}.}.}.",
"}.}.}.}.}.}.}.}.}.}.}.}.}.}.}.}.}.}.}.}.}.}.}.}.}.}.}.}.}.[.[.[.[.[.[.}.}.}.T.].!.!.[.!.}.}.}.}.}.}.}.}.}.}.}.}.}.}.}.}.}.}.}.}.",
"}.}.}.}.}.}.}.}.}.}.}.}.}.}.}.}.}.}.}.}.}.}.}.}.}.}.}.}.}.[.[.[.[.[.}.}.}.}.!.^.!.!.!.}.}.}.}.}.}.}.}.}.}.}.}.}.}.}.}.}.}.}.}.}.",
"}.}.}.}.}.}.}.}.}.}.}.}.}.}.}.}.}.}.}.}.}.}.}.}.}.}.}.}.}.[.[.[.[.}.}.}.}.}.!.^.!.].}.}.}.}.}.}.}.}.}.}.}.}.}.}.}.}.}.}.}.}.}.}.",
"}.}.}.}.}.}.}.}.}.}.}.}.}.}.}.}.}.}.}.}.}.}.}.}.}.}.}.}.}.[.[.[.}.}.}.}.}.}.!.!.].!.}.}.}.}.}.}.}.}.}.}.}.}.}.}.}.}.}.}.}.}.}.}.",
"}.}.}.}.}.}.}.}.}.}.}.}.}.}.}.}.}.}.}.}.}.}.}.}.}.}.}.}.}.[.[.}.}.}.}.}.}.}.!.[.!.}.}.}.}.}.}.}.}.}.}.}.}.}.}.}.}.}.}.}.}.}.}.}.",
"}.}.}.}.}.}.}.}.}.}.}.}.}.}.}.}.}.}.}.}.}.}.}.}.}.}.}.}.}.}.}.}.}.}.}.}.}.}.}.!.}.}.}.}.}.}.}.}.}.}.}.}.}.}.}.}.}.}.}.}.}.}.}.}.",
"}.}.}.}.}.}.}.}.}.}.}.}.}.}.}.}.}.}.}.}.}.}.}.}.}.}.}.}.}.}.}.}.}.}.}.}.}.}.}.}.}.}.}.}.}.}.}.}.}.}.}.}.}.}.}.}.}.}.}.}.}.}.}.}."
};
