/* XPM */
static char *_ca2814b3fce4593cbafd5631d74f24c9jlyxUcN6p4LMz9c[] = {
/* columns rows colors chars-per-pixel */
"64 64 183 2 ",
"   c None",
".  c #3B7B78",
"X  c #437D7B",
"o  c #4F7B7B",
"O  c #FF242A",
"+  c #FF2B3E",
"@  c #FF263C",
"#  c #FF303E",
"$  c #FF3B3D",
"%  c #FF423F",
"&  c #FF3542",
"*  c #FF3B44",
"=  c #817B76",
"-  c #B96B67",
";  c #A77B72",
":  c #D35D5E",
">  c #FF4747",
",  c #FF4947",
"<  c #FF4B4A",
"1  c #FF594A",
"2  c #EB5250",
"3  c #FE5454",
"4  c #FD5B55",
"5  c #FE5C5C",
"6  c #FE515D",
"7  c #FE694C",
"8  c #FE764F",
"9  c #FF7858",
"0  c #FF5E66",
"q  c #FF5E69",
"w  c #FC5364",
"e  c #CB6561",
"r  c #D1656C",
"t  c #FF6666",
"y  c #FF6966",
"u  c #FF6469",
"i  c #FF6A6A",
"p  c #FE7465",
"a  c #FE7B64",
"s  c #FF786A",
"d  c #FF7171",
"f  c #4D857E",
"g  c #5B857E",
"h  c #6A837C",
"j  c #FD894F",
"k  c #FE8B56",
"l  c #FE895E",
"z  c #FD9E5C",
"x  c #FE9655",
"c  c #FEA35C",
"v  c #FEAA59",
"b  c #FEB45C",
"n  c #FEBA5F",
"m  c #FE8263",
"M  c #FE8C63",
"N  c #FE896C",
"B  c #FE846A",
"V  c #FD9B72",
"C  c #FB927A",
"Z  c #ED8B67",
"A  c #FEA361",
"S  c #FEB561",
"D  c #FEBA61",
"F  c #FEBD6D",
"G  c #FBA777",
"H  c #ECBF7D",
"J  c #FEB778",
"K  c #FDC26F",
"L  c #FEC177",
"P  c #FEC379",
"I  c #1D878B",
"U  c #2F8885",
"Y  c #378887",
"T  c #278A90",
"R  c #2D9391",
"E  c #4A8D8D",
"W  c #488988",
"Q  c #578A86",
"!  c #448E90",
"~  c #4B9397",
"^  c #529192",
"/  c #5C9595",
"(  c #5B979A",
")  c #5E9A9B",
"_  c #74938A",
"`  c #639695",
"'  c #659895",
"]  c #639798",
"[  c #669999",
"{  c #6A9B9B",
"}  c #759A93",
"|  c #749E9A",
" . c #698B81",
".. c #7EA09A",
"X. c #7AA6A7",
"o. c #00C5FD",
"O. c #00CAFF",
"+. c #00D0FF",
"@. c #22CDFF",
"#. c #2CCDFF",
"$. c #34CDFE",
"%. c #24D3FF",
"&. c #3AD2FF",
"*. c #36D5FF",
"=. c #46D4FF",
"-. c #51D9FF",
";. c #63D8FF",
":. c #7EDEFF",
">. c #808989",
",. c #86A29B",
"<. c #97A897",
"1. c #A9AC94",
"2. c #93A8A1",
"3. c #9BB7B7",
"4. c #9AB8B8",
"5. c #84AAAA",
"6. c #A5BEBE",
"7. c #B2BBB3",
"8. c #DCAC82",
"9. c #DCBD8B",
"0. c #D7BD93",
"q. c #E4BD8E",
"w. c #FEBD85",
"e. c #FDB080",
"r. c #EBB8AC",
"t. c #FECB85",
"y. c #FFC48A",
"u. c #F6CA8E",
"i. c #FDCC8C",
"p. c #F3C78A",
"a. c #FFD28F",
"s. c #E9C592",
"d. c #E6C697",
"f. c #FDCE91",
"g. c #F6C791",
"h. c #FED293",
"j. c #FFD49A",
"k. c #FFD999",
"l. c #ECC48B",
"z. c #D6CBB5",
"x. c #FFD7A2",
"c. c #FFDBA4",
"v. c #FFDBAB",
"b. c #EBD3B1",
"n. c #FFDCB0",
"m. c #FFE0AF",
"M. c #FFE1B1",
"N. c #ABC1C1",
"B. c #A8C4C8",
"V. c #B5CAC9",
"C. c #BED1D3",
"Z. c #81DDFF",
"A. c #8BE1FF",
"S. c #96E4FF",
"D. c #AAE6FE",
"F. c #D9D5C7",
"G. c #C9D8D9",
"H. c #D3DEDD",
"J. c #D9DAD3",
"K. c #DCE1D6",
"L. c #F5E0C5",
"P. c #FEE5C4",
"I. c #FFEBCB",
"U. c #FEECD4",
"Y. c #F7EAD9",
"T. c #D4E1E2",
"R. c #D9E2E2",
"E. c #C4EAFA",
"W. c #D3F1FD",
"Q. c #DDF3FD",
"!. c #D9EEF5",
"~. c #E6E6E6",
"^. c #E3EAEA",
"/. c #EBECEC",
"(. c #E8E9E2",
"). c #F2EEE5",
"_. c #EBF3ED",
"`. c #FFF3E5",
"'. c #EDF2F2",
"]. c #E4F2F6",
"[. c #F5F5F5",
"{. c #FFFFFF",
"}. c #F6F8F8",
/* pixels */
"                                                                                                                                ",
"                                                                                                                                ",
"                                                                < < <                                                           ",
"                                                                < < < <                                                         ",
"                                                                < > > <                                                         ",
"                                                                > , > , <     > > > < < >                                       ",
"                                                                < < > > > > < < < > > < >                                       ",
"                                    t t t t i d d i d i i d i y y t 0 5 < < > > > > < <                                         ",
"                              t t d i i t t t t t t t t t t t t t t y y t 0 < > > > >                                           ",
"                          t i i t t t t t t t y t t y t t t t t t t t t t t t < >                                               ",
"                        t i y t t t t t t t t t t t t t t t t t t t t t t t t t < > >                                           ",
"                      t y t t t t t t t t t t t t t t t t t t t t t t t t t t i 5 < < >                                         ",
"                    t i t t t t t t t y t t t t t t t t t t t t t t t y t t t t y 3 > > < >                                     ",
"                  u d t t t t y t t t t t t t t t t t t t t t t t t t t t t t t t 0 > > > < <                                   ",
"                  t i t t t t t t t t t t t t t t i y t t t t t t t t t t t t t t t < > > > <                                   ",
"                  i t t t t t t t t t t t t t t t t t t t i t y t t t t t t t t t y 5 > > > > >                                 ",
"                u i t t t y t t t t t t t y t t t t t y t t t t t t t t t t t t t t 5 > > > > < >                               ",
"                t i t t t t t t t y t t t t t t t t t t t t t t t t t y t t t t t t 0 > > > < < >                               ",
"                t i t t t t t t t t t t t t t t t t t t t t t t t t t t t t t y t t t > > > > , <                               ",
"                t y t t t t t t t t t t t t t t t t t t t t t t t t t t t t t t t t t < > > > > < >                             ",
"                t t t t t t t t t t t y t t t t t t t t t t t t t t t y t t t t t t t < > > > > < <                             ",
"                t t t t t t t t t t t t t t t t t t t y t t t t t t t t t t t t t y t < > > > > < >                             ",
"                t t y t t t t t t t t y y t i t t t t t t y t t t t t t t t y t t t 5 , > > > > > >                             ",
"                t y t t t t t t t y 0 M s u t t t t t t t t t t t t t t t t t t t y 5 > > > > > > <                             ",
"                t y t t t t t t t y 0 A M 0 y t t t t t t t t t t t t t t t t t t y 5 > > > > > > <                             ",
"                  d t t t t y t t 0 t S A u 0 u u u y t t t y t y y t y y t t t t y 3 > > > > > < <                             ",
"                  t i t 0 0 t y p a c b b c l m 9 y t 0 0 0 q q q 0 0 0 u t t t y 6 * < > > > > > <                             ",
"                      s A A c v b F L L P P P P J J S G z x j l B m m m m y t t y k 7 * > > > > < <                             ",
"                      a F K a.M.P.j.i.h.h.f.f.f.h.h.f.i.M.U.I.h.P F n D n m u t a D D k * < > > > <                             ",
"                      B i.c.].A.Z.].j.i.f.f.f.i.i.f.t.P.D.-.S.}.x.t.F b S s t 0 a S S D 8 & , < > < <                           ",
"                      C a.).%.o.o.&.).t.f.f.f.f.f.i.x.D.o.O.o.:.`.i.y.b b p t 0 p b S D c * , > < < >                           ",
"                        m.E.O.$.$.o.E.h.f.f.f.f.h.t.L.=.O.#.#.O.].j.i.F b p t t y S S D v < > > > < >                           ",
"                        c.E.O.#.#.O.E.k.i.f.f.f.h.t.L.&.O.O.#.O.Q.x.u.L b p q t 0 A b D z & , , > < >                           ",
"                      w y._.O.o.o.+./.t.f.f.f.f.f.i.n.Z.o.$.O.*.[.h.f.P b p u y 0 M D D 7 * , > > > <                           ",
"                      0 N m.W.;.;.W.v.i.h.f.f.i.i.f.i.(.-.O.+.W.P.t.f.P b p u t u p v 8 * < , > > > < >                         ",
"                      y q V c.U.U.x.y.f.f.i.f.f.f.f.i.h.Y.!.'.P.t.f.f.F b s u t u t 3 $ < , > , > > > <                         ",
"                      t y 0 N J t.i.h.h.f.h.i.f.h.h.f.i.y.h.h.t.h.h.t.b x t t t t t 5 > > > > > > > > < >                       ",
"                      y t t q t a G e.w.y.y.u.u.H p.u.i.g.g.l.s.q.8.Z 1 & 5 y t t t t 3 > > < > > > > > > <                     ",
"                    t d t t y 5 # + & > > ; ' ,.J.2. ._ _ _ ` / W X o : % 4 t t t t t 5 > > > > < > > > > < >                   ",
"                    t i t t y 3 , < < * - R ` X.].4.~ [ ) ] [  .o g Q f 2 < y t t t u t > > > > > > > > > > <                   ",
"                      d y y t < , , > , h } { E Y ` ' [ [ [ ' g h g h U - % t t t t t t < > > < < > > > > > < >                 ",
"                      t t t 0 > < , > , o / [ N.6./ [ [ [ [ ' Q X . X U e % < t t t u 4 > > > < > > > > > > > <                 ",
"                              < > > , # i 7.! /.G.E { [ [ ' ] | F.J.K.r.O < > , 3 3 < > > > < > > > > > > > < >                 ",
"                              < < > > > 1 g.| ` [ { { { { | [ | j.k.k.G + < > > > > > > > > > > > > > > > < < >                 ",
"                              > < , , * 4 a.<.I ^ E E ^ E E U } f.i.h.V + < > > > > > > > > > > > > > > > < >                   ",
"                              > < , , $ e.a.z.B.N.N.6.N.B.V.C.z.y.f.h.N # < > > > > > > > > > > > > > < < <                     ",
"                                < < # B h.t.z.T.R.R.R.H.K.H.G.b.a.f.h.V + < , > > > > > > > > > > > > > < <                     ",
"                                < < * w.h.s.^ ! E E E E ! ! T 9.a.i.h.G + < , , > > > > > > > > > > < <                         ",
"                                  & p a.i.,.( | { { { { { { { s.i.f.h.G + , > > > > > > > > > > < < >                           ",
"                                    V k.1.~ { [ [ [ [ [ [ [ ) s.h.f.h.G @ < > > > > > < > < < < >                               ",
"                                      d.~ { [ [ [ [ [ [ [ { ~ 0.a.f.a.<.r > < < < < < < > < >                                   ",
"                                      | [ [ [ [ [ [ [ [ [ [ ( <.u.a.s.) >.% < < > <                                             ",
"                                      E { { { [ [ [ [ [ [ [ { ( ,.1.| Y 3.                                                      ",
"                                      C./ E ^ ` ' [ [ { { [ ] ` ! T X.T.}.                                                      ",
"                                        ^.C.3.X.{ [ [ / / / { 5.6.G.'.                                                          ",
"                                        /.[.[.[./.^.!.~.^./.}.}.{.{.                                                            ",
"                                        ~.~.~.~.}.      {.{.{.{.{.{.                                                            ",
"                                        ~.[.~.~.[.~.      {.{.{.{.{.{.                                                          ",
"                                          ~.~.~./.~.        {.{.{.{.{.                                                          ",
"                                            }.~./.~.          {.{.{.{.                                                          ",
"                                            ~.[.~.~.            {.{.{.                                                          ",
"                                              ~.{.~.              {.{.                                                          ",
"                                                ~.                                                                              ",
"                                                                                                                                "
};
